<svg xmlns="http://www.w3.org/2000/svg" xmlns:xlink="http://www.w3.org/1999/xlink" width="322" zoomAndPan="magnify" viewBox="0 0 241.5 155.249994" height="207" preserveAspectRatio="xMidYMid meet" version="1.2"><defs><clipPath id="507cbc065f"><path d="M 83.660156 0 L 157.550781 0 L 157.550781 94.046875 L 83.660156 94.046875 Z M 83.660156 0 "/></clipPath><clipPath id="6b5190b5e8"><path d="M 90.050781 5.738281 L 151 5.738281 L 151 64.3125 L 90.050781 64.3125 Z M 90.050781 5.738281 "/></clipPath><clipPath id="007a1d43c1"><path d="M 120.515625 5.738281 C 103.691406 5.738281 90.050781 18.851562 90.050781 35.023438 C 90.050781 51.199219 103.691406 64.3125 120.515625 64.3125 C 137.34375 64.3125 150.984375 51.199219 150.984375 35.023438 C 150.984375 18.851562 137.34375 5.738281 120.515625 5.738281 Z M 120.515625 5.738281 "/></clipPath><clipPath id="ed6f6ae403"><path d="M 94.003906 10.757812 L 147 10.757812 L 147 64.5 L 94.003906 64.5 Z M 94.003906 10.757812 "/></clipPath></defs><g id="77f29e390b"><g clip-rule="nonzero" clip-path="url(#507cbc065f)"><path style=" stroke:none;fill-rule:nonzero;fill:#000000;fill-opacity:1;" d="M 120.609375 0.0234375 C 119.398438 0.0234375 118.191406 0.0820312 116.984375 0.199219 C 115.78125 0.316406 114.585938 0.492188 113.398438 0.726562 C 112.210938 0.964844 111.039062 1.253906 109.882812 1.605469 C 108.722656 1.953125 107.585938 2.359375 106.46875 2.820312 C 105.351562 3.28125 104.257812 3.796875 103.191406 4.363281 C 102.121094 4.929688 101.085938 5.546875 100.078125 6.21875 C 99.074219 6.886719 98.101562 7.601562 97.167969 8.367188 C 96.230469 9.128906 95.335938 9.9375 94.480469 10.789062 C 93.625 11.640625 92.8125 12.53125 92.046875 13.464844 C 91.277344 14.394531 90.558594 15.359375 89.886719 16.359375 C 89.214844 17.363281 88.59375 18.394531 88.023438 19.457031 C 87.453125 20.515625 86.933594 21.605469 86.472656 22.71875 C 86.007812 23.828125 85.601562 24.960938 85.25 26.113281 C 84.898438 27.265625 84.605469 28.433594 84.367188 29.613281 C 84.132812 30.792969 83.957031 31.984375 83.835938 33.183594 C 83.71875 34.378906 83.660156 35.582031 83.660156 36.785156 C 83.660156 59.492188 103.828125 78.269531 114.363281 91.074219 C 114.742188 91.535156 115.167969 91.949219 115.636719 92.316406 C 116.105469 92.683594 116.613281 92.992188 117.152344 93.25 C 117.691406 93.503906 118.253906 93.695312 118.835938 93.828125 C 119.417969 93.957031 120.011719 94.023438 120.609375 94.023438 C 121.207031 94.023438 121.796875 93.957031 122.378906 93.828125 C 122.960938 93.695312 123.523438 93.503906 124.0625 93.25 C 124.601562 92.992188 125.109375 92.683594 125.578125 92.316406 C 126.046875 91.949219 126.472656 91.535156 126.851562 91.074219 C 137.386719 78.269531 157.554688 58.410156 157.554688 36.785156 C 157.554688 35.582031 157.496094 34.378906 157.378906 33.183594 C 157.261719 31.984375 157.082031 30.792969 156.847656 29.613281 C 156.609375 28.433594 156.316406 27.265625 155.964844 26.113281 C 155.613281 24.960938 155.207031 23.828125 154.742188 22.714844 C 154.28125 21.605469 153.765625 20.515625 153.191406 19.457031 C 152.621094 18.394531 152 17.363281 151.328125 16.359375 C 150.65625 15.359375 149.9375 14.394531 149.167969 13.464844 C 148.402344 12.53125 147.589844 11.640625 146.734375 10.789062 C 145.878906 9.9375 144.984375 9.128906 144.046875 8.367188 C 143.113281 7.601562 142.140625 6.886719 141.136719 6.21875 C 140.128906 5.546875 139.09375 4.929688 138.023438 4.363281 C 136.957031 3.796875 135.863281 3.28125 134.746094 2.820312 C 133.628906 2.359375 132.492188 1.953125 131.332031 1.605469 C 130.175781 1.253906 129.003906 0.964844 127.816406 0.726562 C 126.628906 0.492188 125.433594 0.316406 124.230469 0.199219 C 123.023438 0.0820312 121.816406 0.0234375 120.609375 0.0234375 Z M 134.398438 54.984375 C 111.976562 68.839844 88.394531 45.375 102.320312 23.066406 C 103.46875 21.226562 104.96875 19.734375 106.820312 18.589844 C 129.242188 4.730469 152.824219 28.195312 138.898438 50.507812 C 137.746094 52.347656 136.246094 53.839844 134.398438 54.984375 Z M 134.398438 54.984375 "/></g><g clip-rule="nonzero" clip-path="url(#6b5190b5e8)"><g clip-rule="nonzero" clip-path="url(#007a1d43c1)"><path style=" stroke:none;fill-rule:nonzero;fill:#ffffff;fill-opacity:1;" d="M 90.050781 5.738281 L 150.914062 5.738281 L 150.914062 64.3125 L 90.050781 64.3125 Z M 90.050781 5.738281 "/></g></g><g clip-rule="nonzero" clip-path="url(#ed6f6ae403)"><path style=" stroke:none;fill-rule:nonzero;fill:#000000;fill-opacity:1;" d="M 184.933594 91.304688 L 68.527344 91.304688 L 73.8125 88.164062 L 78.214844 86.582031 L 81.054688 83.042969 L 93.765625 71.144531 L 94.300781 68.28125 L 92.53125 66.90625 L 92.113281 63.484375 L 94.300781 61.972656 L 94.300781 61.109375 L 93.136719 61.109375 L 96.371094 55.035156 L 99.585938 60.761719 L 98.5625 60.761719 L 98.628906 65.605469 L 99.121094 65.695312 L 99.144531 66.417969 L 100.261719 66.394531 L 100.261719 65.136719 L 101.074219 65.136719 L 101.074219 66.09375 L 101.378906 66.070312 L 101.378906 65.324219 L 102.191406 65.230469 L 102.191406 64.207031 L 103.242188 63.925781 L 103.242188 57.386719 L 102.191406 57.386719 L 102.191406 55.523438 L 103.242188 55.523438 L 103.242188 50.496094 L 102.75 50.496094 L 102.75 49.890625 L 103.285156 49.890625 L 103.285156 47.375 L 102.867188 47.375 L 104.195312 44.230469 L 105.730469 47.140625 L 105.171875 47.140625 L 105.171875 47.839844 L 105.917969 47.839844 L 105.917969 48.097656 L 105.148438 48.097656 L 105.148438 48.585938 L 109.386719 48.585938 L 109.386719 47.398438 L 108.804688 47.398438 L 108.804688 46.699219 L 109.386719 46.699219 L 109.386719 45.976562 L 109.710938 45.976562 L 109.710938 39.597656 L 109.175781 39.597656 L 109.175781 37.898438 L 110.269531 37.898438 L 110.269531 35.710938 L 109.734375 35.710938 L 111.15625 29.167969 L 112.785156 35.617188 L 112.226562 35.617188 L 112.226562 37.152344 L 113.855469 37.152344 L 113.855469 30.402344 L 113.160156 30.402344 L 113.160156 29.5625 L 113.855469 29.5625 L 113.855469 28.285156 L 113.113281 28.285156 L 115.90625 17.832031 L 115.90625 13.128906 C 115.277344 13.570312 112.949219 14.988281 111.902344 11.707031 C 111.902344 11.707031 113.113281 12.640625 115.90625 10.914062 L 115.90625 10.824219 L 116.207031 10.824219 L 116.207031 17.832031 L 118.886719 28.191406 L 118.164062 28.191406 L 118.164062 29.449219 L 118.886719 29.449219 L 118.886719 30.378906 L 118.210938 30.378906 L 118.210938 40.15625 L 119.328125 40.15625 L 119.328125 36.152344 L 120.210938 36.152344 L 120.210938 35.058594 L 119.628906 35.058594 L 119.628906 34.664062 L 120.210938 34.664062 L 120.210938 33.359375 L 119.675781 33.359375 L 120.679688 27.75 L 122.191406 33.335938 L 121.773438 33.335938 L 121.773438 34.640625 L 122.191406 34.640625 L 122.191406 35.035156 L 121.75 35.035156 L 121.75 36.011719 L 122.703125 36.011719 L 122.703125 37.828125 L 122.121094 37.828125 L 122.121094 46.070312 L 122.703125 46.046875 L 122.703125 47.722656 L 123.214844 47.722656 L 123.214844 48.003906 L 126.894531 48.003906 L 126.894531 46.605469 L 126.03125 46.605469 L 126.03125 45.976562 L 126.894531 45.976562 L 126.894531 40.621094 L 126.21875 40.621094 L 126.21875 38.085938 L 127.730469 36.570312 L 127.730469 35.710938 L 127.359375 35.710938 L 127.359375 34.175781 L 126.964844 34.175781 L 129.316406 28.167969 L 129.316406 25.023438 C 128.617188 25.023438 125.847656 24.929688 125.425781 23.535156 C 125.425781 23.535156 128.382812 23.582031 129.316406 22.695312 L 129.316406 22.511719 L 129.617188 22.511719 L 129.617188 27.75 L 132.109375 34.058594 L 131.621094 34.035156 L 131.621094 35.570312 L 131.339844 35.570312 L 131.339844 36.59375 L 132.878906 38.132812 L 132.878906 40.621094 L 132.320312 40.621094 L 132.320312 46.09375 L 132.808594 46.09375 L 132.808594 46.605469 L 132.34375 46.605469 L 132.34375 51.007812 L 136.160156 51.007812 L 137.648438 58.222656 L 137.648438 65.253906 L 138.675781 65.253906 L 138.675781 63.414062 L 139.394531 63.414062 L 139.394531 61.667969 L 138.371094 61.667969 L 138.371094 60.785156 L 139.394531 60.785156 L 139.394531 56.640625 L 138.464844 56.640625 L 138.464844 54.824219 L 139.046875 54.824219 L 139.046875 51.613281 L 140.28125 46.488281 L 141.46875 51.84375 L 141.46875 54.476562 L 142.65625 54.476562 L 142.65625 48.539062 L 144.542969 40.925781 L 146.613281 49.050781 L 146.613281 54.40625 L 147.359375 54.40625 L 147.359375 57.898438 L 146.171875 57.898438 L 146.171875 60.109375 L 147.125 60.109375 L 147.125 62.367188 L 148.523438 62.367188 L 148.523438 61.109375 L 149.617188 61.109375 L 149.617188 62.507812 L 149.988281 62.507812 L 150.921875 64.765625 L 157.066406 64.765625 L 157.066406 62.203125 L 156.460938 62.203125 L 156.460938 61.320312 L 157.347656 61.320312 L 157.347656 59.875 L 156.671875 59.875 L 159.835938 53.148438 L 162.933594 59.714844 L 161.980469 59.714844 L 161.980469 61.273438 L 162.722656 61.273438 L 162.722656 62.15625 L 162.234375 62.15625 L 162.234375 68.792969 L 163.863281 69.980469 L 163.863281 72.632812 L 162.539062 73.660156 L 162.539062 77.617188 L 168.613281 81.410156 L 170.242188 84.273438 L 180.464844 87.441406 Z M 184.933594 91.304688 "/></g><g style="fill:#000000;fill-opacity:1;"><g transform="translate(26.768613, 145.391238)"><path style="stroke:none" d="M 2.078125 0 L 1.078125 0 L 1.078125 -9.75 L 2.078125 -9.75 Z M 2.078125 0 "/></g></g><g style="fill:#000000;fill-opacity:1;"><g transform="translate(41.379444, 145.391238)"><path style="stroke:none" d="M 0.28125 -8.84375 L 0.28125 -9.765625 L 6.015625 -9.765625 L 6.015625 -8.84375 L 3.65625 -8.84375 L 3.65625 -0.03125 L 2.65625 -0.03125 L 2.65625 -8.84375 Z M 0.28125 -8.84375 "/></g></g><g style="fill:#000000;fill-opacity:1;"><g transform="translate(59.140292, 145.391238)"><path style="stroke:none" d="M 2.078125 0 L 1.078125 0 L 1.078125 -9.75 L 2.078125 -9.75 Z M 2.078125 0 "/></g></g><g style="fill:#000000;fill-opacity:1;"><g transform="translate(73.751122, 145.391238)"><path style="stroke:none" d="M 2.078125 -7.171875 L 2.078125 0 L 1.078125 0 L 1.078125 -10.359375 L 6.546875 -2.578125 L 6.546875 -9.75 L 7.546875 -9.75 L 7.546875 0.609375 Z M 2.078125 -7.171875 "/></g></g><g style="fill:#000000;fill-opacity:1;"><g transform="translate(93.831534, 145.391238)"><path style="stroke:none" d="M 6.859375 0 L 1.078125 0 L 1.078125 -9.75 L 6.859375 -9.75 L 6.859375 -8.8125 L 2.078125 -8.8125 L 2.078125 -5.34375 L 6.71875 -5.34375 L 6.71875 -4.40625 L 2.078125 -4.40625 L 2.078125 -0.9375 L 6.859375 -0.9375 Z M 6.859375 0 "/></g></g><g style="fill:#000000;fill-opacity:1;"><g transform="translate(113.224675, 145.391238)"><path style="stroke:none" d="M 2.078125 -4.8125 L 4.34375 -4.8125 C 4.90625 -4.8125 5.367188 -5.003906 5.734375 -5.390625 C 6.109375 -5.773438 6.296875 -6.253906 6.296875 -6.828125 C 6.296875 -7.398438 6.117188 -7.867188 5.765625 -8.234375 C 5.410156 -8.597656 4.9375 -8.78125 4.34375 -8.78125 L 2.078125 -8.78125 Z M 7.296875 -6.8125 C 7.296875 -5.957031 6.992188 -5.25 6.390625 -4.6875 C 5.859375 -4.1875 5.210938 -3.914062 4.453125 -3.875 L 7.453125 0 L 6.109375 0 L 3.25 -3.859375 L 2.078125 -3.859375 L 2.078125 0 L 1.078125 0 L 1.078125 -9.75 L 4.203125 -9.75 C 5.066406 -9.75 5.796875 -9.472656 6.390625 -8.921875 C 6.992188 -8.347656 7.296875 -7.644531 7.296875 -6.8125 Z M 7.296875 -6.8125 "/></g></g><g style="fill:#000000;fill-opacity:1;"><g transform="translate(132.474633, 145.391238)"><path style="stroke:none" d="M 2.65625 -3.578125 L 6.1875 -3.578125 L 4.421875 -8.0625 Z M 8.703125 0 L 7.609375 0 L 6.5625 -2.65625 L 2.28125 -2.65625 L 1.234375 0 L 0.140625 0 L 4.421875 -10.421875 Z M 8.703125 0 "/></g></g><g style="fill:#000000;fill-opacity:1;"><g transform="translate(152.769823, 145.391238)"><path style="stroke:none" d="M 2.078125 -4.8125 L 4.34375 -4.8125 C 4.90625 -4.8125 5.367188 -5.003906 5.734375 -5.390625 C 6.109375 -5.773438 6.296875 -6.253906 6.296875 -6.828125 C 6.296875 -7.398438 6.117188 -7.867188 5.765625 -8.234375 C 5.410156 -8.597656 4.9375 -8.78125 4.34375 -8.78125 L 2.078125 -8.78125 Z M 7.296875 -6.8125 C 7.296875 -5.957031 6.992188 -5.25 6.390625 -4.6875 C 5.859375 -4.1875 5.210938 -3.914062 4.453125 -3.875 L 7.453125 0 L 6.109375 0 L 3.25 -3.859375 L 2.078125 -3.859375 L 2.078125 0 L 1.078125 0 L 1.078125 -9.75 L 4.203125 -9.75 C 5.066406 -9.75 5.796875 -9.472656 6.390625 -8.921875 C 6.992188 -8.347656 7.296875 -7.644531 7.296875 -6.8125 Z M 7.296875 -6.8125 "/></g></g><g style="fill:#000000;fill-opacity:1;"><g transform="translate(172.019781, 145.391238)"><path style="stroke:none" d="M 2.078125 0 L 1.078125 0 L 1.078125 -9.75 L 2.078125 -9.75 Z M 2.078125 0 "/></g></g><g style="fill:#000000;fill-opacity:1;"><g transform="translate(186.63062, 145.391238)"><path style="stroke:none" d="M 6.859375 0 L 1.078125 0 L 1.078125 -9.75 L 6.859375 -9.75 L 6.859375 -8.8125 L 2.078125 -8.8125 L 2.078125 -5.34375 L 6.71875 -5.34375 L 6.71875 -4.40625 L 2.078125 -4.40625 L 2.078125 -0.9375 L 6.859375 -0.9375 Z M 6.859375 0 "/></g></g><g style="fill:#000000;fill-opacity:1;"><g transform="translate(206.023743, 145.391238)"><path style="stroke:none" d="M 3.78125 -4.59375 C 1.789062 -5.050781 0.796875 -5.90625 0.796875 -7.15625 C 0.796875 -8.070312 1.117188 -8.757812 1.765625 -9.21875 C 2.398438 -9.664062 3.148438 -9.890625 4.015625 -9.890625 C 5.910156 -9.890625 7.035156 -9.179688 7.390625 -7.765625 L 6.296875 -7.765625 C 6.109375 -8.609375 5.347656 -9.03125 4.015625 -9.03125 C 3.078125 -9.03125 2.421875 -8.753906 2.046875 -8.203125 C 1.898438 -7.984375 1.828125 -7.71875 1.828125 -7.40625 C 1.828125 -6.800781 2.15625 -6.335938 2.8125 -6.015625 C 3.113281 -5.859375 3.757812 -5.648438 4.75 -5.390625 C 5.75 -5.128906 6.472656 -4.84375 6.921875 -4.53125 C 7.546875 -4.09375 7.859375 -3.472656 7.859375 -2.671875 C 7.859375 -1.691406 7.46875 -0.945312 6.6875 -0.4375 C 6.039062 -0.0195312 5.238281 0.1875 4.28125 0.1875 C 2.125 0.1875 0.875 -0.632812 0.53125 -2.28125 L 1.71875 -2.28125 C 1.894531 -1.25 2.75 -0.734375 4.28125 -0.734375 C 5.375 -0.734375 6.132812 -1.035156 6.5625 -1.640625 C 6.726562 -1.867188 6.8125 -2.191406 6.8125 -2.609375 C 6.8125 -3.003906 6.65625 -3.332031 6.34375 -3.59375 C 5.894531 -3.957031 5.039062 -4.289062 3.78125 -4.59375 Z M 3.78125 -4.59375 "/></g></g><g style="fill:#000000;fill-opacity:1;"><g transform="translate(42.475721, 123.824195)"><path style="stroke:none" d="M 1.625 -22.296875 L 9.765625 -22.296875 C 12.035156 -22.296875 13.867188 -21.707031 15.265625 -20.53125 C 16.671875 -19.363281 17.375 -17.660156 17.375 -15.421875 C 17.375 -13.191406 16.660156 -11.441406 15.234375 -10.171875 C 13.816406 -8.898438 11.992188 -8.265625 9.765625 -8.265625 L 6.703125 -8.265625 L 6.703125 0 L 1.625 0 Z M 6.703125 -12.328125 L 8.140625 -12.328125 C 9.273438 -12.328125 10.207031 -12.554688 10.9375 -13.015625 C 11.664062 -13.472656 12.03125 -14.222656 12.03125 -15.265625 C 12.03125 -16.335938 11.664062 -17.101562 10.9375 -17.5625 C 10.207031 -18.019531 9.273438 -18.25 8.140625 -18.25 L 6.703125 -18.25 Z M 6.703125 -12.328125 "/></g></g><g style="fill:#000000;fill-opacity:1;"><g transform="translate(60.479585, 123.824195)"><path style="stroke:none" d="M 12.953125 -22.296875 L 21.953125 0 L 16.484375 0 L 14.84375 -4.453125 L 6.359375 -4.453125 L 4.703125 0 L -0.75 0 L 8.25 -22.296875 Z M 13.109375 -8.921875 L 10.625 -15.40625 L 10.5625 -15.40625 L 8.078125 -8.921875 Z M 13.109375 -8.921875 "/></g></g><g style="fill:#000000;fill-opacity:1;"><g transform="translate(81.673318, 123.824195)"><path style="stroke:none" d="M 1.625 -22.296875 L 9.59375 -22.296875 C 11.738281 -22.296875 13.488281 -21.722656 14.84375 -20.578125 C 16.195312 -19.441406 16.875 -17.804688 16.875 -15.671875 C 16.875 -14.035156 16.460938 -12.660156 15.640625 -11.546875 C 14.816406 -10.441406 13.703125 -9.664062 12.296875 -9.21875 L 19.96875 0 L 13.515625 0 L 6.703125 -8.8125 L 6.703125 0 L 1.625 0 Z M 6.703125 -12.40625 L 7.296875 -12.40625 C 7.765625 -12.40625 8.160156 -12.414062 8.484375 -12.4375 C 8.804688 -12.457031 9.175781 -12.519531 9.59375 -12.625 C 10.007812 -12.726562 10.34375 -12.878906 10.59375 -13.078125 C 10.84375 -13.273438 11.054688 -13.5625 11.234375 -13.9375 C 11.421875 -14.320312 11.515625 -14.785156 11.515625 -15.328125 C 11.515625 -15.867188 11.421875 -16.328125 11.234375 -16.703125 C 11.054688 -17.078125 10.84375 -17.363281 10.59375 -17.5625 C 10.34375 -17.769531 10.007812 -17.925781 9.59375 -18.03125 C 9.175781 -18.132812 8.804688 -18.195312 8.484375 -18.21875 C 8.160156 -18.238281 7.765625 -18.25 7.296875 -18.25 L 6.703125 -18.25 Z M 6.703125 -12.40625 "/></g></g><g style="fill:#000000;fill-opacity:1;"><g transform="translate(101.02882, 123.824195)"><path style="stroke:none" d="M 21.921875 0 L 14.921875 0 L 6.703125 -9.453125 L 6.703125 0 L 1.625 0 L 1.625 -22.296875 L 6.703125 -22.296875 L 6.703125 -13.1875 L 14.359375 -22.296875 L 20.515625 -22.296875 L 11.546875 -11.734375 Z M 21.921875 0 "/></g></g><g style="fill:#000000;fill-opacity:1;"><g transform="translate(122.30366, 123.824195)"><path style="stroke:none" d=""/></g></g><g style="fill:#000000;fill-opacity:1;"><g transform="translate(129.683621, 123.824195)"><path style="stroke:none" d="M 1.625 -22.296875 L 9.765625 -22.296875 C 12.035156 -22.296875 13.867188 -21.707031 15.265625 -20.53125 C 16.671875 -19.363281 17.375 -17.660156 17.375 -15.421875 C 17.375 -13.191406 16.660156 -11.441406 15.234375 -10.171875 C 13.816406 -8.898438 11.992188 -8.265625 9.765625 -8.265625 L 6.703125 -8.265625 L 6.703125 0 L 1.625 0 Z M 6.703125 -12.328125 L 8.140625 -12.328125 C 9.273438 -12.328125 10.207031 -12.554688 10.9375 -13.015625 C 11.664062 -13.472656 12.03125 -14.222656 12.03125 -15.265625 C 12.03125 -16.335938 11.664062 -17.101562 10.9375 -17.5625 C 10.207031 -18.019531 9.273438 -18.25 8.140625 -18.25 L 6.703125 -18.25 Z M 6.703125 -12.328125 "/></g></g><g style="fill:#000000;fill-opacity:1;"><g transform="translate(147.687485, 123.824195)"><path style="stroke:none" d="M 1.625 -22.296875 L 9.59375 -22.296875 C 11.738281 -22.296875 13.488281 -21.722656 14.84375 -20.578125 C 16.195312 -19.441406 16.875 -17.804688 16.875 -15.671875 C 16.875 -14.035156 16.460938 -12.660156 15.640625 -11.546875 C 14.816406 -10.441406 13.703125 -9.664062 12.296875 -9.21875 L 19.96875 0 L 13.515625 0 L 6.703125 -8.8125 L 6.703125 0 L 1.625 0 Z M 6.703125 -12.40625 L 7.296875 -12.40625 C 7.765625 -12.40625 8.160156 -12.414062 8.484375 -12.4375 C 8.804688 -12.457031 9.175781 -12.519531 9.59375 -12.625 C 10.007812 -12.726562 10.34375 -12.878906 10.59375 -13.078125 C 10.84375 -13.273438 11.054688 -13.5625 11.234375 -13.9375 C 11.421875 -14.320312 11.515625 -14.785156 11.515625 -15.328125 C 11.515625 -15.867188 11.421875 -16.328125 11.234375 -16.703125 C 11.054688 -17.078125 10.84375 -17.363281 10.59375 -17.5625 C 10.34375 -17.769531 10.007812 -17.925781 9.59375 -18.03125 C 9.175781 -18.132812 8.804688 -18.195312 8.484375 -18.21875 C 8.160156 -18.238281 7.765625 -18.25 7.296875 -18.25 L 6.703125 -18.25 Z M 6.703125 -12.40625 "/></g></g><g style="fill:#000000;fill-opacity:1;"><g transform="translate(167.042987, 123.824195)"><path style="stroke:none" d="M 0.625 -11.15625 C 0.625 -14.382812 1.722656 -17.113281 3.921875 -19.34375 C 6.117188 -21.582031 8.765625 -22.703125 11.859375 -22.703125 C 14.984375 -22.703125 17.632812 -21.585938 19.8125 -19.359375 C 21.988281 -17.140625 23.078125 -14.40625 23.078125 -11.15625 C 23.078125 -7.894531 22.003906 -5.148438 19.859375 -2.921875 C 17.722656 -0.703125 15.054688 0.40625 11.859375 0.40625 C 8.597656 0.40625 5.910156 -0.695312 3.796875 -2.90625 C 1.679688 -5.113281 0.625 -7.863281 0.625 -11.15625 Z M 6.109375 -11.15625 C 6.109375 -9.988281 6.285156 -8.921875 6.640625 -7.953125 C 7.003906 -6.992188 7.632812 -6.179688 8.53125 -5.515625 C 9.4375 -4.847656 10.546875 -4.515625 11.859375 -4.515625 C 13.753906 -4.515625 15.179688 -5.160156 16.140625 -6.453125 C 17.109375 -7.753906 17.59375 -9.320312 17.59375 -11.15625 C 17.59375 -12.976562 17.101562 -14.539062 16.125 -15.84375 C 15.144531 -17.15625 13.722656 -17.8125 11.859375 -17.8125 C 10.023438 -17.8125 8.609375 -17.15625 7.609375 -15.84375 C 6.609375 -14.539062 6.109375 -12.976562 6.109375 -11.15625 Z M 6.109375 -11.15625 "/></g></g><g style="fill:#000000;fill-opacity:1;"><g transform="translate(190.76158, 123.824195)"><path style="stroke:none" d=""/></g></g></g></svg>