<svg xmlns="http://www.w3.org/2000/svg" xmlns:xlink="http://www.w3.org/1999/xlink" width="321" zoomAndPan="magnify" viewBox="0 0 240.75 55.5" height="74" preserveAspectRatio="xMidYMid meet" version="1.2"><defs><clipPath id="3b922d6f02"><path d="M 0.949219 1.949219 L 38.730469 1.949219 L 38.730469 50.03125 L 0.949219 50.03125 Z M 0.949219 1.949219 "/></clipPath><clipPath id="d5bd692653"><path d="M 4.21875 4.882812 L 35.453125 4.882812 L 35.453125 34.828125 L 4.21875 34.828125 Z M 4.21875 4.882812 "/></clipPath><clipPath id="8744b58be3"><path d="M 19.796875 4.882812 C 11.191406 4.882812 4.21875 11.585938 4.21875 19.855469 C 4.21875 28.125 11.191406 34.828125 19.796875 34.828125 C 28.398438 34.828125 35.371094 28.125 35.371094 19.855469 C 35.371094 11.585938 28.398438 4.882812 19.796875 4.882812 Z M 19.796875 4.882812 "/></clipPath><clipPath id="674e36d74d"><path d="M 6.242188 7.449219 L 33.335938 7.449219 L 33.335938 34.925781 L 6.242188 34.925781 Z M 6.242188 7.449219 "/></clipPath></defs><g id="f1852a95e8"><g clip-rule="nonzero" clip-path="url(#3b922d6f02)"><path style=" stroke:none;fill-rule:nonzero;fill:#000000;fill-opacity:1;" d="M 19.839844 1.960938 C 19.222656 1.960938 18.605469 1.988281 17.988281 2.050781 C 17.375 2.109375 16.761719 2.199219 16.15625 2.320312 C 15.550781 2.441406 14.949219 2.589844 14.359375 2.769531 C 13.765625 2.949219 13.183594 3.15625 12.613281 3.390625 C 12.039062 3.625 11.480469 3.886719 10.9375 4.179688 C 10.390625 4.46875 9.859375 4.785156 9.347656 5.128906 C 8.832031 5.46875 8.335938 5.835938 7.859375 6.226562 C 7.378906 6.617188 6.921875 7.027344 6.484375 7.464844 C 6.046875 7.898438 5.632812 8.355469 5.238281 8.832031 C 4.847656 9.308594 4.476562 9.800781 4.132812 10.3125 C 3.789062 10.824219 3.472656 11.351562 3.179688 11.894531 C 2.890625 12.4375 2.625 12.992188 2.390625 13.5625 C 2.152344 14.132812 1.945312 14.710938 1.765625 15.300781 C 1.585938 15.886719 1.433594 16.484375 1.3125 17.089844 C 1.191406 17.691406 1.101562 18.300781 1.042969 18.914062 C 0.980469 19.527344 0.949219 20.140625 0.949219 20.753906 C 0.949219 32.363281 11.261719 41.964844 16.648438 48.511719 C 16.84375 48.746094 17.058594 48.960938 17.300781 49.148438 C 17.539062 49.335938 17.800781 49.492188 18.074219 49.625 C 18.351562 49.753906 18.636719 49.851562 18.9375 49.917969 C 19.234375 49.984375 19.535156 50.019531 19.839844 50.019531 C 20.148438 50.019531 20.449219 49.984375 20.746094 49.917969 C 21.046875 49.851562 21.332031 49.753906 21.609375 49.625 C 21.882812 49.492188 22.140625 49.335938 22.382812 49.148438 C 22.625 48.960938 22.839844 48.746094 23.035156 48.511719 C 28.417969 41.964844 38.730469 31.8125 38.730469 20.753906 C 38.730469 20.140625 38.703125 19.527344 38.640625 18.914062 C 38.582031 18.300781 38.488281 17.691406 38.371094 17.089844 C 38.25 16.484375 38.097656 15.886719 37.917969 15.300781 C 37.738281 14.710938 37.53125 14.132812 37.292969 13.5625 C 37.058594 12.992188 36.792969 12.4375 36.5 11.894531 C 36.210938 11.351562 35.890625 10.824219 35.546875 10.3125 C 35.203125 9.800781 34.835938 9.308594 34.445312 8.832031 C 34.050781 8.355469 33.636719 7.898438 33.199219 7.464844 C 32.761719 7.027344 32.304688 6.617188 31.824219 6.226562 C 31.347656 5.835938 30.851562 5.46875 30.335938 5.128906 C 29.820312 4.785156 29.292969 4.46875 28.746094 4.179688 C 28.199219 3.886719 27.640625 3.625 27.070312 3.390625 C 26.5 3.15625 25.917969 2.949219 25.324219 2.769531 C 24.734375 2.589844 24.132812 2.441406 23.527344 2.320312 C 22.921875 2.199219 22.308594 2.109375 21.691406 2.050781 C 21.078125 1.988281 20.460938 1.960938 19.839844 1.960938 Z M 26.890625 30.058594 C 15.429688 37.144531 3.371094 25.148438 10.492188 13.742188 C 11.078125 12.800781 11.847656 12.039062 12.792969 11.453125 C 24.253906 4.367188 36.3125 16.363281 29.191406 27.769531 C 28.605469 28.710938 27.835938 29.476562 26.890625 30.058594 Z M 26.890625 30.058594 "/></g><g clip-rule="nonzero" clip-path="url(#d5bd692653)"><g clip-rule="nonzero" clip-path="url(#8744b58be3)"><path style=" stroke:none;fill-rule:nonzero;fill:#ffffff;fill-opacity:1;" d="M 4.21875 4.882812 L 35.335938 4.882812 L 35.335938 34.828125 L 4.21875 34.828125 Z M 4.21875 4.882812 "/></g></g><g clip-rule="nonzero" clip-path="url(#674e36d74d)"><path style=" stroke:none;fill-rule:nonzero;fill:#000000;fill-opacity:1;" d="M 52.730469 48.628906 L -6.785156 48.628906 L -4.082031 47.023438 L -1.832031 46.214844 L -0.382812 44.40625 L 6.117188 38.320312 L 6.390625 36.859375 L 5.488281 36.15625 L 5.273438 34.40625 L 6.390625 33.632812 L 6.390625 33.191406 L 5.796875 33.191406 L 7.449219 30.085938 L 9.09375 33.011719 L 8.570312 33.011719 L 8.605469 35.488281 L 8.855469 35.535156 L 8.867188 35.90625 L 9.4375 35.894531 L 9.4375 35.25 L 9.855469 35.25 L 9.855469 35.738281 L 10.011719 35.726562 L 10.011719 35.347656 L 10.425781 35.300781 L 10.425781 34.773438 L 10.960938 34.632812 L 10.960938 31.289062 L 10.425781 31.289062 L 10.425781 30.335938 L 10.960938 30.335938 L 10.960938 27.765625 L 10.710938 27.765625 L 10.710938 27.453125 L 10.984375 27.453125 L 10.984375 26.167969 L 10.773438 26.167969 L 11.449219 24.5625 L 12.234375 26.050781 L 11.949219 26.050781 L 11.949219 26.40625 L 12.332031 26.40625 L 12.332031 26.539062 L 11.9375 26.539062 L 11.9375 26.789062 L 14.105469 26.789062 L 14.105469 26.179688 L 13.808594 26.179688 L 13.808594 25.824219 L 14.105469 25.824219 L 14.105469 25.453125 L 14.269531 25.453125 L 14.269531 22.195312 L 13.996094 22.195312 L 13.996094 21.324219 L 14.558594 21.324219 L 14.558594 20.207031 L 14.28125 20.207031 L 15.007812 16.859375 L 15.84375 20.160156 L 15.558594 20.160156 L 15.558594 20.945312 L 16.390625 20.945312 L 16.390625 17.492188 L 16.03125 17.492188 L 16.03125 17.0625 L 16.390625 17.0625 L 16.390625 16.410156 L 16.007812 16.410156 L 17.4375 11.0625 L 17.4375 8.660156 C 17.117188 8.886719 15.925781 9.613281 15.390625 7.933594 C 15.390625 7.933594 16.007812 8.410156 17.4375 7.527344 L 17.4375 7.480469 L 17.59375 7.480469 L 17.59375 11.0625 L 18.960938 16.359375 L 18.59375 16.359375 L 18.59375 17.003906 L 18.960938 17.003906 L 18.960938 17.480469 L 18.617188 17.480469 L 18.617188 22.480469 L 19.1875 22.480469 L 19.1875 20.433594 L 19.640625 20.433594 L 19.640625 19.871094 L 19.34375 19.871094 L 19.34375 19.671875 L 19.640625 19.671875 L 19.640625 19.003906 L 19.367188 19.003906 L 19.878906 16.136719 L 20.652344 18.992188 L 20.4375 18.992188 L 20.4375 19.660156 L 20.652344 19.660156 L 20.652344 19.859375 L 20.425781 19.859375 L 20.425781 20.359375 L 20.914062 20.359375 L 20.914062 21.289062 L 20.617188 21.289062 L 20.617188 25.503906 L 20.914062 25.492188 L 20.914062 26.347656 L 21.175781 26.347656 L 21.175781 26.492188 L 23.054688 26.492188 L 23.054688 25.777344 L 22.617188 25.777344 L 22.617188 25.453125 L 23.054688 25.453125 L 23.054688 22.71875 L 22.710938 22.71875 L 22.710938 21.421875 L 23.484375 20.644531 L 23.484375 20.207031 L 23.292969 20.207031 L 23.292969 19.421875 L 23.089844 19.421875 L 24.292969 16.347656 L 24.292969 14.742188 C 23.9375 14.742188 22.519531 14.695312 22.304688 13.980469 C 22.304688 13.980469 23.816406 14.003906 24.292969 13.550781 L 24.292969 13.457031 L 24.449219 13.457031 L 24.449219 16.136719 L 25.722656 19.359375 L 25.472656 19.347656 L 25.472656 20.132812 L 25.328125 20.132812 L 25.328125 20.65625 L 26.113281 21.445312 L 26.113281 22.71875 L 25.828125 22.71875 L 25.828125 25.515625 L 26.078125 25.515625 L 26.078125 25.777344 L 25.839844 25.777344 L 25.839844 28.027344 L 27.792969 28.027344 L 28.554688 31.714844 L 28.554688 35.3125 L 29.078125 35.3125 L 29.078125 34.371094 L 29.449219 34.371094 L 29.449219 33.476562 L 28.925781 33.476562 L 28.925781 33.023438 L 29.449219 33.023438 L 29.449219 30.90625 L 28.972656 30.90625 L 28.972656 29.976562 L 29.269531 29.976562 L 29.269531 28.335938 L 29.898438 25.71875 L 30.507812 28.453125 L 30.507812 29.800781 L 31.113281 29.800781 L 31.113281 26.765625 L 32.078125 22.871094 L 33.136719 27.027344 L 33.136719 29.765625 L 33.519531 29.765625 L 33.519531 31.550781 L 32.910156 31.550781 L 32.910156 32.679688 L 33.398438 32.679688 L 33.398438 33.835938 L 34.113281 33.835938 L 34.113281 33.191406 L 34.671875 33.191406 L 34.671875 33.90625 L 34.863281 33.90625 L 35.339844 35.0625 L 38.480469 35.0625 L 38.480469 33.75 L 38.171875 33.75 L 38.171875 33.300781 L 38.625 33.300781 L 38.625 32.5625 L 38.28125 32.5625 L 39.898438 29.121094 L 41.480469 32.476562 L 40.992188 32.476562 L 40.992188 33.273438 L 41.375 33.273438 L 41.375 33.726562 L 41.125 33.726562 L 41.125 37.121094 L 41.957031 37.726562 L 41.957031 39.085938 L 41.277344 39.609375 L 41.277344 41.632812 L 44.386719 43.570312 L 45.21875 45.035156 L 50.445312 46.65625 Z M 52.730469 48.628906 "/></g><g style="fill:#000000;fill-opacity:1;"><g transform="translate(40.799513, 45.77178)"><path style="stroke:none" d="M 2.0625 0 L 1.0625 0 L 1.0625 -9.703125 L 2.0625 -9.703125 Z M 2.0625 0 "/></g></g><g style="fill:#000000;fill-opacity:1;"><g transform="translate(55.349842, 45.77178)"><path style="stroke:none" d="M 0.28125 -8.796875 L 0.28125 -9.734375 L 5.984375 -9.734375 L 5.984375 -8.796875 L 3.640625 -8.796875 L 3.640625 -0.03125 L 2.640625 -0.03125 L 2.640625 -8.796875 Z M 0.28125 -8.796875 "/></g></g><g style="fill:#000000;fill-opacity:1;"><g transform="translate(73.037144, 45.77178)"><path style="stroke:none" d="M 2.0625 0 L 1.0625 0 L 1.0625 -9.703125 L 2.0625 -9.703125 Z M 2.0625 0 "/></g></g><g style="fill:#000000;fill-opacity:1;"><g transform="translate(87.587473, 45.77178)"><path style="stroke:none" d="M 2.0625 -7.140625 L 2.0625 0 L 1.0625 0 L 1.0625 -10.3125 L 6.515625 -2.5625 L 6.515625 -9.703125 L 7.515625 -9.703125 L 7.515625 0.59375 Z M 2.0625 -7.140625 "/></g></g><g style="fill:#000000;fill-opacity:1;"><g transform="translate(107.584735, 45.77178)"><path style="stroke:none" d="M 6.828125 0 L 1.0625 0 L 1.0625 -9.703125 L 6.828125 -9.703125 L 6.828125 -8.765625 L 2.0625 -8.765625 L 2.0625 -5.328125 L 6.6875 -5.328125 L 6.6875 -4.375 L 2.0625 -4.375 L 2.0625 -0.921875 L 6.828125 -0.921875 Z M 6.828125 0 "/></g></g><g style="fill:#000000;fill-opacity:1;"><g transform="translate(126.89757, 45.77178)"><path style="stroke:none" d="M 2.0625 -4.796875 L 4.328125 -4.796875 C 4.890625 -4.796875 5.347656 -4.984375 5.703125 -5.359375 C 6.078125 -5.753906 6.265625 -6.234375 6.265625 -6.796875 C 6.265625 -7.359375 6.085938 -7.828125 5.734375 -8.203125 C 5.378906 -8.566406 4.910156 -8.75 4.328125 -8.75 L 2.0625 -8.75 Z M 7.265625 -6.78125 C 7.265625 -5.925781 6.960938 -5.222656 6.359375 -4.671875 C 5.828125 -4.171875 5.1875 -3.898438 4.4375 -3.859375 L 7.421875 0 L 6.078125 0 L 3.234375 -3.84375 L 2.0625 -3.84375 L 2.0625 0 L 1.0625 0 L 1.0625 -9.703125 L 4.1875 -9.703125 C 5.050781 -9.703125 5.773438 -9.429688 6.359375 -8.890625 C 6.960938 -8.316406 7.265625 -7.613281 7.265625 -6.78125 Z M 7.265625 -6.78125 "/></g></g><g style="fill:#000000;fill-opacity:1;"><g transform="translate(146.067817, 45.77178)"><path style="stroke:none" d="M 2.640625 -3.5625 L 6.15625 -3.5625 L 4.40625 -8.03125 Z M 8.65625 0 L 7.578125 0 L 6.53125 -2.640625 L 2.265625 -2.640625 L 1.234375 0 L 0.140625 0 L 4.40625 -10.375 Z M 8.65625 0 "/></g></g><g style="fill:#000000;fill-opacity:1;"><g transform="translate(166.278967, 45.77178)"><path style="stroke:none" d="M 2.0625 -4.796875 L 4.328125 -4.796875 C 4.890625 -4.796875 5.347656 -4.984375 5.703125 -5.359375 C 6.078125 -5.753906 6.265625 -6.234375 6.265625 -6.796875 C 6.265625 -7.359375 6.085938 -7.828125 5.734375 -8.203125 C 5.378906 -8.566406 4.910156 -8.75 4.328125 -8.75 L 2.0625 -8.75 Z M 7.265625 -6.78125 C 7.265625 -5.925781 6.960938 -5.222656 6.359375 -4.671875 C 5.828125 -4.171875 5.1875 -3.898438 4.4375 -3.859375 L 7.421875 0 L 6.078125 0 L 3.234375 -3.84375 L 2.0625 -3.84375 L 2.0625 0 L 1.0625 0 L 1.0625 -9.703125 L 4.1875 -9.703125 C 5.050781 -9.703125 5.773438 -9.429688 6.359375 -8.890625 C 6.960938 -8.316406 7.265625 -7.613281 7.265625 -6.78125 Z M 7.265625 -6.78125 "/></g></g><g style="fill:#000000;fill-opacity:1;"><g transform="translate(185.449213, 45.77178)"><path style="stroke:none" d="M 2.0625 0 L 1.0625 0 L 1.0625 -9.703125 L 2.0625 -9.703125 Z M 2.0625 0 "/></g></g><g style="fill:#000000;fill-opacity:1;"><g transform="translate(199.999551, 45.77178)"><path style="stroke:none" d="M 6.828125 0 L 1.0625 0 L 1.0625 -9.703125 L 6.828125 -9.703125 L 6.828125 -8.765625 L 2.0625 -8.765625 L 2.0625 -5.328125 L 6.6875 -5.328125 L 6.6875 -4.375 L 2.0625 -4.375 L 2.0625 -0.921875 L 6.828125 -0.921875 Z M 6.828125 0 "/></g></g><g style="fill:#000000;fill-opacity:1;"><g transform="translate(219.312369, 45.77178)"><path style="stroke:none" d="M 3.765625 -4.578125 C 1.785156 -5.035156 0.796875 -5.882812 0.796875 -7.125 C 0.796875 -8.03125 1.113281 -8.710938 1.75 -9.171875 C 2.382812 -9.617188 3.132812 -9.84375 4 -9.84375 C 5.882812 -9.84375 7.003906 -9.140625 7.359375 -7.734375 L 6.28125 -7.734375 C 6.082031 -8.566406 5.320312 -8.984375 4 -8.984375 C 3.0625 -8.984375 2.410156 -8.707031 2.046875 -8.15625 C 1.898438 -7.945312 1.828125 -7.6875 1.828125 -7.375 C 1.828125 -6.769531 2.148438 -6.304688 2.796875 -5.984375 C 3.097656 -5.828125 3.742188 -5.617188 4.734375 -5.359375 C 5.722656 -5.109375 6.441406 -4.828125 6.890625 -4.515625 C 7.503906 -4.078125 7.8125 -3.460938 7.8125 -2.671875 C 7.8125 -1.691406 7.425781 -0.945312 6.65625 -0.4375 C 6.007812 -0.0195312 5.210938 0.1875 4.265625 0.1875 C 2.117188 0.1875 0.875 -0.628906 0.53125 -2.265625 L 1.71875 -2.265625 C 1.894531 -1.242188 2.742188 -0.734375 4.265625 -0.734375 C 5.347656 -0.734375 6.101562 -1.03125 6.53125 -1.625 C 6.707031 -1.863281 6.796875 -2.1875 6.796875 -2.59375 C 6.796875 -3 6.632812 -3.328125 6.3125 -3.578125 C 5.875 -3.941406 5.023438 -4.273438 3.765625 -4.578125 Z M 3.765625 -4.578125 "/></g></g><g style="fill:#000000;fill-opacity:1;"><g transform="translate(40.491186, 32.742492)"><path style="stroke:none" d="M 1.609375 -22.203125 L 9.71875 -22.203125 C 11.976562 -22.203125 13.804688 -21.617188 15.203125 -20.453125 C 16.609375 -19.285156 17.3125 -17.585938 17.3125 -15.359375 C 17.3125 -13.140625 16.601562 -11.394531 15.1875 -10.125 C 13.769531 -8.863281 11.945312 -8.234375 9.71875 -8.234375 L 6.671875 -8.234375 L 6.671875 0 L 1.609375 0 Z M 6.671875 -12.28125 L 8.109375 -12.28125 C 9.234375 -12.28125 10.160156 -12.507812 10.890625 -12.96875 C 11.617188 -13.425781 11.984375 -14.171875 11.984375 -15.203125 C 11.984375 -16.265625 11.617188 -17.023438 10.890625 -17.484375 C 10.160156 -17.941406 9.234375 -18.171875 8.109375 -18.171875 L 6.671875 -18.171875 Z M 6.671875 -12.28125 "/></g></g><g style="fill:#000000;fill-opacity:1;"><g transform="translate(58.4205, 32.742492)"><path style="stroke:none" d="M 12.890625 -22.203125 L 21.859375 0 L 16.421875 0 L 14.78125 -4.4375 L 6.328125 -4.4375 L 4.6875 0 L -0.75 0 L 8.21875 -22.203125 Z M 13.0625 -8.890625 L 10.578125 -15.34375 L 10.53125 -15.34375 L 8.046875 -8.890625 Z M 13.0625 -8.890625 "/></g></g><g style="fill:#000000;fill-opacity:1;"><g transform="translate(79.526475, 32.742492)"><path style="stroke:none" d="M 1.609375 -22.203125 L 9.5625 -22.203125 C 11.695312 -22.203125 13.4375 -21.632812 14.78125 -20.5 C 16.125 -19.363281 16.796875 -17.734375 16.796875 -15.609375 C 16.796875 -13.984375 16.382812 -12.617188 15.5625 -11.515625 C 14.75 -10.410156 13.644531 -9.632812 12.25 -9.1875 L 19.890625 0 L 13.46875 0 L 6.671875 -8.78125 L 6.671875 0 L 1.609375 0 Z M 6.671875 -12.359375 L 7.265625 -12.359375 C 7.734375 -12.359375 8.128906 -12.363281 8.453125 -12.375 C 8.773438 -12.394531 9.140625 -12.457031 9.546875 -12.5625 C 9.960938 -12.675781 10.296875 -12.832031 10.546875 -13.03125 C 10.804688 -13.226562 11.023438 -13.515625 11.203125 -13.890625 C 11.378906 -14.265625 11.46875 -14.722656 11.46875 -15.265625 C 11.46875 -15.804688 11.378906 -16.265625 11.203125 -16.640625 C 11.023438 -17.015625 10.804688 -17.300781 10.546875 -17.5 C 10.296875 -17.695312 9.960938 -17.847656 9.546875 -17.953125 C 9.140625 -18.066406 8.773438 -18.128906 8.453125 -18.140625 C 8.128906 -18.160156 7.734375 -18.171875 7.265625 -18.171875 L 6.671875 -18.171875 Z M 6.671875 -12.359375 "/></g></g><g style="fill:#000000;fill-opacity:1;"><g transform="translate(98.80183, 32.742492)"><path style="stroke:none" d="M 21.828125 0 L 14.859375 0 L 6.671875 -9.421875 L 6.671875 0 L 1.609375 0 L 1.609375 -22.203125 L 6.671875 -22.203125 L 6.671875 -13.140625 L 14.296875 -22.203125 L 20.4375 -22.203125 L 11.5 -11.6875 Z M 21.828125 0 "/></g></g><g style="fill:#000000;fill-opacity:1;"><g transform="translate(119.988576, 32.742492)"><path style="stroke:none" d=""/></g></g><g style="fill:#000000;fill-opacity:1;"><g transform="translate(127.337979, 32.742492)"><path style="stroke:none" d="M 1.609375 -22.203125 L 9.71875 -22.203125 C 11.976562 -22.203125 13.804688 -21.617188 15.203125 -20.453125 C 16.609375 -19.285156 17.3125 -17.585938 17.3125 -15.359375 C 17.3125 -13.140625 16.601562 -11.394531 15.1875 -10.125 C 13.769531 -8.863281 11.945312 -8.234375 9.71875 -8.234375 L 6.671875 -8.234375 L 6.671875 0 L 1.609375 0 Z M 6.671875 -12.28125 L 8.109375 -12.28125 C 9.234375 -12.28125 10.160156 -12.507812 10.890625 -12.96875 C 11.617188 -13.425781 11.984375 -14.171875 11.984375 -15.203125 C 11.984375 -16.265625 11.617188 -17.023438 10.890625 -17.484375 C 10.160156 -17.941406 9.234375 -18.171875 8.109375 -18.171875 L 6.671875 -18.171875 Z M 6.671875 -12.28125 "/></g></g><g style="fill:#000000;fill-opacity:1;"><g transform="translate(145.267293, 32.742492)"><path style="stroke:none" d="M 1.609375 -22.203125 L 9.5625 -22.203125 C 11.695312 -22.203125 13.4375 -21.632812 14.78125 -20.5 C 16.125 -19.363281 16.796875 -17.734375 16.796875 -15.609375 C 16.796875 -13.984375 16.382812 -12.617188 15.5625 -11.515625 C 14.75 -10.410156 13.644531 -9.632812 12.25 -9.1875 L 19.890625 0 L 13.46875 0 L 6.671875 -8.78125 L 6.671875 0 L 1.609375 0 Z M 6.671875 -12.359375 L 7.265625 -12.359375 C 7.734375 -12.359375 8.128906 -12.363281 8.453125 -12.375 C 8.773438 -12.394531 9.140625 -12.457031 9.546875 -12.5625 C 9.960938 -12.675781 10.296875 -12.832031 10.546875 -13.03125 C 10.804688 -13.226562 11.023438 -13.515625 11.203125 -13.890625 C 11.378906 -14.265625 11.46875 -14.722656 11.46875 -15.265625 C 11.46875 -15.804688 11.378906 -16.265625 11.203125 -16.640625 C 11.023438 -17.015625 10.804688 -17.300781 10.546875 -17.5 C 10.296875 -17.695312 9.960938 -17.847656 9.546875 -17.953125 C 9.140625 -18.066406 8.773438 -18.128906 8.453125 -18.140625 C 8.128906 -18.160156 7.734375 -18.171875 7.265625 -18.171875 L 6.671875 -18.171875 Z M 6.671875 -12.359375 "/></g></g><g style="fill:#000000;fill-opacity:1;"><g transform="translate(164.542648, 32.742492)"><path style="stroke:none" d="M 0.625 -11.125 C 0.625 -14.332031 1.71875 -17.046875 3.90625 -19.265625 C 6.09375 -21.492188 8.726562 -22.609375 11.8125 -22.609375 C 14.914062 -22.609375 17.550781 -21.5 19.71875 -19.28125 C 21.894531 -17.070312 22.984375 -14.351562 22.984375 -11.125 C 22.984375 -7.875 21.914062 -5.140625 19.78125 -2.921875 C 17.644531 -0.703125 14.988281 0.40625 11.8125 0.40625 C 8.570312 0.40625 5.894531 -0.691406 3.78125 -2.890625 C 1.675781 -5.085938 0.625 -7.832031 0.625 -11.125 Z M 6.078125 -11.125 C 6.078125 -9.957031 6.253906 -8.890625 6.609375 -7.921875 C 6.972656 -6.960938 7.601562 -6.148438 8.5 -5.484375 C 9.40625 -4.828125 10.507812 -4.5 11.8125 -4.5 C 13.695312 -4.5 15.117188 -5.144531 16.078125 -6.4375 C 17.046875 -7.726562 17.53125 -9.289062 17.53125 -11.125 C 17.53125 -12.9375 17.039062 -14.488281 16.0625 -15.78125 C 15.082031 -17.082031 13.664062 -17.734375 11.8125 -17.734375 C 9.988281 -17.734375 8.578125 -17.082031 7.578125 -15.78125 C 6.578125 -14.488281 6.078125 -12.9375 6.078125 -11.125 Z M 6.078125 -11.125 "/></g></g><g style="fill:#000000;fill-opacity:1;"><g transform="translate(188.163025, 32.742492)"><path style="stroke:none" d=""/></g></g></g></svg>