<svg xmlns="http://www.w3.org/2000/svg" width="500" height="500" version="1.2" viewBox="0 0 375 375"><defs><clipPath id="a"><path d="M149.71 84.027h75.352v96.883h-75.351Zm0 0"/></clipPath><clipPath id="b"><path d="M156.266 89.91h62.632v60.055h-62.632Zm0 0"/></clipPath><clipPath id="c"><path d="M187.5 89.91c-17.25 0-31.234 13.445-31.234 30.028 0 16.582 13.984 30.027 31.234 30.027s31.234-13.445 31.234-30.028c0-16.582-13.984-30.027-31.234-30.027Zm0 0"/></clipPath><clipPath id="d"><path d="M160.11 96h54.421v54.996H160.11Zm0 0"/></clipPath><clipPath id="e"><path d="M130 265.023h115V267H130Zm0 0"/></clipPath></defs><g clip-path="url(#a)"><path d="M187.39 84.055a37.69 37.69 0 0 0-7.35.726 38.07 38.07 0 0 0-7.066 2.156 37.917 37.917 0 0 0-6.517 3.5 36.38 36.38 0 0 0-2.969 2.215 37.616 37.616 0 0 0-7.425 8.235 37.488 37.488 0 0 0-3.481 6.547 37.204 37.204 0 0 0-1.246 3.496c-.36 1.187-.66 2.39-.899 3.605a38.028 38.028 0 0 0-.727 7.39c0 23.388 20.571 42.727 31.313 55.919a8.21 8.21 0 0 0 1.297 1.281c.48.375.996.695 1.547.96.551.263 1.121.462 1.715.595.598.136 1.2.203 1.809.203s1.21-.067 1.804-.203a8.138 8.138 0 0 0 3.262-1.555c.48-.379.914-.805 1.3-1.281 10.743-13.192 31.31-33.645 31.31-55.918a38.025 38.025 0 0 0-.723-7.39 38.271 38.271 0 0 0-.899-3.606 38.345 38.345 0 0 0-1.246-3.496c-.472-1.149-1-2.266-1.582-3.36a38.5 38.5 0 0 0-1.898-3.187 39.23 39.23 0 0 0-2.203-2.989 37.654 37.654 0 0 0-2.485-2.75 36.766 36.766 0 0 0-2.738-2.496 37.067 37.067 0 0 0-2.969-2.215 37.922 37.922 0 0 0-6.515-3.5 38.07 38.07 0 0 0-7.067-2.156 37.234 37.234 0 0 0-3.66-.543 37.551 37.551 0 0 0-3.691-.183Zm14.063 56.617c-22.867 14.27-46.91-9.899-32.71-32.879a14.18 14.18 0 0 1 4.585-4.613c22.867-14.274 46.914 9.894 32.711 32.879a14.141 14.141 0 0 1-4.586 4.613Zm0 0" style="stroke:none;fill-rule:nonzero;fill:#000;fill-opacity:1"/></g><g clip-path="url(#b)"><g clip-path="url(#c)"><path d="M156.266 89.91h62.398v60.055h-62.398Zm0 0" style="stroke:none;fill-rule:nonzero;fill:#fff;fill-opacity:1"/></g></g><g clip-path="url(#d)"><path d="M253.594 178.738H133.992l5.43-3.23 4.52-1.625 2.917-3.637 13.063-12.223.55-2.941-1.82-1.414-.43-3.516 2.25-1.554v-.887h-1.195l3.325-6.242 3.3 5.886h-1.054l.074 4.973.5.098.023.742 1.149-.023v-1.293h.84v.98l.308-.023v-.766l.84-.098v-1.05l1.074-.29v-6.718h-1.074v-1.914h1.074v-5.168h-.5v-.621h.547v-2.586h-.43l1.364-3.227 1.578 2.988h-.57v.72h.761v.26h-.789v.505h4.356v-1.219h-.598v-.719h.598v-.742h.336v-6.555h-.551v-1.746h1.125v-2.25h-.551l1.457-6.718 1.676 6.625h-.574v1.578h1.675v-6.938h-.718v-.86h.718v-1.316h-.765l2.87-10.742V98.41c-.648.457-3.038 1.914-4.116-1.457 0 0 1.246.957 4.117-.812v-.098h.308v7.2l2.75 10.644h-.738v1.293h.738v.957h-.69v10.047h1.148v-4.114h.906v-1.125h-.598v-.406h.598v-1.34h-.547l1.027-5.765 1.555 5.742h-.43v1.34h.43v.406h-.453v1.004h.98v1.867h-.597v8.469l.597-.028v1.723h.524v.29h3.78v-1.438h-.886v-.645h.887v-5.5h-.695v-2.61l1.554-1.554v-.887h-.382v-1.578h-.407l2.418-6.172v-3.226c-.719 0-3.566-.098-3.996-1.532 0 0 3.04.047 3.996-.863v-.191h.309v5.383l2.562 6.484-.504-.023v1.578h-.285v1.05l1.578 1.579v2.562h-.574v5.621h.5v.524h-.476v4.523h3.921l1.532 7.414v7.223h1.054v-1.887h.739v-1.797h-1.051v-.906h1.05v-4.258h-.956v-1.867h.601v-3.3l1.266-5.263 1.219 5.5v2.704h1.222v-6.098l1.938-7.824 2.129 8.347v5.504h.765v3.586h-1.222v2.274h.98v2.32h1.438v-1.293h1.125v1.437h.382l.957 2.32h6.313v-2.632h-.621v-.906h.91v-1.485h-.695l3.254-6.914 3.183 6.746h-.984v1.602h.765v.91h-.5v6.816l1.672 1.223v2.727l-1.363 1.05v4.067l6.246 3.898 1.672 2.946 10.504 3.25Zm0 0" style="stroke:none;fill-rule:nonzero;fill:#000;fill-opacity:1"/></g><g clip-path="url(#e)"><path d="M244.863 265.98s-5.36-.125-13.765-.293a6138.49 6138.49 0 0 0-20.653-.382c-3.699-.059-7.55-.118-11.476-.16-3.778-.043-7.625-.082-11.473-.098a899.32 899.32 0 0 0-9.18-.004c-4.718.027-9.351.094-13.77.164-4.921.078-9.57.172-13.769.266-12.257.265-20.652.507-20.652.507s8.395.243 20.652.512c4.2.094 8.848.188 13.77.266 4.418.066 9.05.133 13.77.164 3.035.015 6.105.012 9.18-.004 3.847-.016 7.694-.055 11.472-.098 3.926-.047 7.777-.101 11.476-.164 7.805-.129 14.934-.265 20.653-.379 8.406-.168 13.765-.297 13.765-.297Zm0 0" style="stroke:none;fill-rule:evenodd;fill:#fff;fill-opacity:1"/></g><g style="fill:#000;fill-opacity:1"><path d="M2.125 0H1.109v-9.984h1.016Zm0 0" style="stroke:none" transform="translate(91.387 233.089)"/></g><g style="fill:#000;fill-opacity:1"><path d="M.297-9.063v-.953h5.875v.954H3.75v9.03H2.719v-9.03Zm0 0" style="stroke:none" transform="translate(106.366 233.089)"/></g><g style="fill:#000;fill-opacity:1"><path d="M2.125 0H1.109v-9.984h1.016Zm0 0" style="stroke:none" transform="translate(124.575 233.089)"/></g><g style="fill:#000;fill-opacity:1"><path d="M2.125-7.36V0H1.109v-10.625l5.61 7.984v-7.343h1.015V.609Zm0 0" style="stroke:none" transform="translate(139.555 233.089)"/></g><g style="fill:#000;fill-opacity:1"><path d="M7.031 0H1.11v-9.984h5.922v.953H2.125v3.547h4.766v.968H2.125v3.563h4.906Zm0 0" style="stroke:none" transform="translate(160.142 233.089)"/></g><g style="fill:#000;fill-opacity:1"><path d="M2.125-4.938h2.328c.57 0 1.047-.19 1.422-.578.383-.406.578-.898.578-1.484 0-.582-.183-1.066-.547-1.453C5.54-8.816 5.055-9 4.453-9H2.125Zm5.344-2.046c0 .875-.309 1.605-.922 2.187-.543.5-1.203.777-1.984.828L7.64 0H6.25L3.328-3.953H2.125V0H1.109v-9.984h3.188c.894 0 1.644.277 2.25.828.613.594.922 1.32.922 2.172Zm0 0" style="stroke:none" transform="translate(180.024 233.089)"/></g><g style="fill:#000;fill-opacity:1"><path d="M2.719-3.672h3.625L4.53-8.266ZM8.922 0H7.797L6.734-2.719H2.328L1.266 0H.14l4.39-10.672Zm0 0" style="stroke:none" transform="translate(199.76 233.089)"/></g><g style="fill:#000;fill-opacity:1"><path d="M2.125-4.938h2.328c.57 0 1.047-.19 1.422-.578.383-.406.578-.898.578-1.484 0-.582-.183-1.066-.547-1.453C5.54-8.816 5.055-9 4.453-9H2.125Zm5.344-2.046c0 .875-.309 1.605-.922 2.187-.543.5-1.203.777-1.984.828L7.64 0H6.25L3.328-3.953H2.125V0H1.109v-9.984h3.188c.894 0 1.644.277 2.25.828.613.594.922 1.32.922 2.172Zm0 0" style="stroke:none" transform="translate(220.567 233.089)"/></g><g style="fill:#000;fill-opacity:1"><path d="M2.125 0H1.109v-9.984h1.016Zm0 0" style="stroke:none" transform="translate(240.303 233.089)"/></g><g style="fill:#000;fill-opacity:1"><path d="M7.031 0H1.11v-9.984h5.922v.953H2.125v3.547h4.766v.968H2.125v3.563h4.906Zm0 0" style="stroke:none" transform="translate(255.282 233.089)"/></g><g style="fill:#000;fill-opacity:1"><path d="M3.875-4.719C1.844-5.187.828-6.055.828-7.329c0-.937.328-1.64.985-2.109.656-.468 1.421-.703 2.296-.703 1.946 0 3.102.73 3.47 2.188h-1.11c-.2-.863-.985-1.297-2.36-1.297-.96 0-1.632.281-2.015.844-.149.219-.219.492-.219.812 0 .617.332 1.09 1 1.422.313.168.977.387 2 .656 1.02.262 1.758.555 2.219.875.633.45.953 1.079.953 1.891 0 1.012-.399 1.777-1.188 2.297-.668.43-1.492.64-2.468.64C2.18.188.898-.647.547-2.328h1.219C1.953-1.273 2.828-.75 4.39-.75c1.113 0 1.894-.305 2.343-.922.164-.25.25-.582.25-1 0-.414-.164-.754-.484-1.015-.46-.376-1.336-.72-2.625-1.032Zm0 0" style="stroke:none" transform="translate(275.165 233.089)"/></g><g style="fill:#000;fill-opacity:1"><path d="M1.656-22.875H10c2.332 0 4.219.605 5.656 1.813 1.446 1.199 2.172 2.945 2.172 5.234 0 2.293-.734 4.09-2.203 5.39-1.46 1.305-3.336 1.954-5.625 1.954H6.875V0H1.656Zm5.219 10.234h1.469c1.164 0 2.117-.234 2.86-.703.75-.469 1.124-1.238 1.124-2.312 0-1.094-.375-1.875-1.125-2.344-.742-.469-1.695-.703-2.86-.703H6.876Zm0 0" style="stroke:none" transform="translate(107.691 210.977)"/></g><g style="fill:#000;fill-opacity:1"><path d="M13.281-22.875 22.5 0h-5.594L15.22-4.578H6.516L4.828 0h-5.61l9.235-22.875Zm.156 13.734-2.546-6.656h-.047L8.28-9.14Zm0 0" style="stroke:none" transform="translate(126.15 210.977)"/></g><g style="fill:#000;fill-opacity:1"><path d="M1.656-22.875h8.188c2.195 0 3.988.59 5.375 1.766 1.383 1.18 2.078 2.855 2.078 5.03 0 1.688-.422 3.102-1.266 4.235-.836 1.137-1.976 1.934-3.422 2.39L20.484 0H13.86L6.875-9.031V0H1.656Zm5.219 10.156h.61c.476 0 .882-.008 1.218-.031.332-.02.711-.082 1.14-.188.427-.113.766-.269 1.016-.468.258-.207.485-.504.672-.89.188-.395.281-.868.281-1.423 0-.55-.093-1.02-.28-1.406-.188-.395-.415-.691-.673-.89-.25-.208-.59-.364-1.015-.47a5.266 5.266 0 0 0-1.14-.187c-.337-.02-.743-.031-1.22-.031h-.609Zm0 0" style="stroke:none" transform="translate(147.878 210.977)"/></g><g style="fill:#000;fill-opacity:1"><path d="M22.484 0h-7.187L6.875-9.703V0H1.656v-22.875h5.219v9.344l7.844-9.344h6.312l-9.203 10.844Zm0 0" style="stroke:none" transform="translate(167.722 210.977)"/></g><g style="fill:#000;fill-opacity:1"><path d="M1.656-22.875H10c2.332 0 4.219.605 5.656 1.813 1.446 1.199 2.172 2.945 2.172 5.234 0 2.293-.734 4.09-2.203 5.39-1.46 1.305-3.336 1.954-5.625 1.954H6.875V0H1.656Zm5.219 10.234h1.469c1.164 0 2.117-.234 2.86-.703.75-.469 1.124-1.238 1.124-2.312 0-1.094-.375-1.875-1.125-2.344-.742-.469-1.695-.703-2.86-.703H6.876Zm0 0" style="stroke:none" transform="translate(197.1 210.977)"/></g><g style="fill:#000;fill-opacity:1"><path d="M1.656-22.875h8.188c2.195 0 3.988.59 5.375 1.766 1.383 1.18 2.078 2.855 2.078 5.03 0 1.688-.422 3.102-1.266 4.235-.836 1.137-1.976 1.934-3.422 2.39L20.484 0H13.86L6.875-9.031V0H1.656Zm5.219 10.156h.61c.476 0 .882-.008 1.218-.031.332-.02.711-.082 1.14-.188.427-.113.766-.269 1.016-.468.258-.207.485-.504.672-.89.188-.395.281-.868.281-1.423 0-.55-.093-1.02-.28-1.406-.188-.395-.415-.691-.673-.89-.25-.208-.59-.364-1.015-.47a5.266 5.266 0 0 0-1.14-.187c-.337-.02-.743-.031-1.22-.031h-.609Zm0 0" style="stroke:none" transform="translate(215.558 210.977)"/></g><g style="fill:#000;fill-opacity:1"><path d="M.64-11.453c0-3.3 1.126-6.098 3.376-8.39 2.257-2.29 4.976-3.438 8.156-3.438 3.195 0 5.91 1.14 8.14 3.422 2.239 2.28 3.36 5.086 3.36 8.406 0 3.344-1.102 6.164-3.297 8.453-2.2 2.281-4.934 3.422-8.203 3.422-3.344 0-6.106-1.129-8.281-3.39C1.723-5.239.64-8.067.64-11.454Zm5.626 0c0 1.21.18 2.308.546 3.297.375.98 1.02 1.812 1.938 2.5.926.687 2.066 1.031 3.422 1.031 1.937 0 3.398-.664 4.39-2 .989-1.332 1.485-2.941 1.485-4.828 0-1.863-.508-3.461-1.516-4.797-1-1.344-2.453-2.016-4.36-2.016-1.886 0-3.343.672-4.374 2.016-1.024 1.336-1.531 2.934-1.531 4.797Zm0 0" style="stroke:none" transform="translate(235.401 210.977)"/></g></svg>