<svg xmlns="http://www.w3.org/2000/svg" xmlns:xlink="http://www.w3.org/1999/xlink" width="146" zoomAndPan="magnify" viewBox="0 0 109.5 140.249994" height="187" preserveAspectRatio="xMidYMid meet" version="1.2"><defs><clipPath id="51d86d638c"><path d="M 0.0429688 0 L 108.960938 0 L 108.960938 138.757812 L 0.0429688 138.757812 Z M 0.0429688 0 "/></clipPath><clipPath id="bac296dfb2"><path d="M 9.210938 8.230469 L 96.847656 8.230469 L 96.847656 92.261719 L 9.210938 92.261719 Z M 9.210938 8.230469 "/></clipPath><clipPath id="845568acb9"><path d="M 52.917969 8.230469 C 28.777344 8.230469 9.210938 27.042969 9.210938 50.246094 C 9.210938 73.449219 28.777344 92.261719 52.917969 92.261719 C 77.054688 92.261719 96.625 73.449219 96.625 50.246094 C 96.625 27.042969 77.054688 8.230469 52.917969 8.230469 Z M 52.917969 8.230469 "/></clipPath><clipPath id="af096f5bcb"><path d="M 14.886719 15.433594 L 90.976562 15.433594 L 90.976562 92.273438 L 14.886719 92.273438 Z M 14.886719 15.433594 "/></clipPath></defs><g id="7415ca2ea8"><g clip-rule="nonzero" clip-path="url(#51d86d638c)"><path style=" stroke:none;fill-rule:nonzero;fill:#000000;fill-opacity:1;" d="M 54.503906 0.0351562 C 52.71875 0.0351562 50.941406 0.121094 49.167969 0.296875 C 47.390625 0.472656 45.628906 0.730469 43.878906 1.078125 C 42.128906 1.425781 40.402344 1.855469 38.695312 2.371094 C 36.988281 2.886719 35.3125 3.484375 33.664062 4.164062 C 32.015625 4.84375 30.402344 5.601562 28.832031 6.441406 C 27.257812 7.277344 25.730469 8.191406 24.246094 9.175781 C 22.765625 10.164062 21.332031 11.222656 19.953125 12.347656 C 18.574219 13.476562 17.253906 14.667969 15.992188 15.921875 C 14.734375 17.179688 13.535156 18.492188 12.40625 19.867188 C 11.273438 21.238281 10.210938 22.664062 9.222656 24.140625 C 8.230469 25.617188 7.3125 27.140625 6.472656 28.707031 C 5.632812 30.273438 4.871094 31.878906 4.1875 33.519531 C 3.503906 35.160156 2.90625 36.832031 2.386719 38.53125 C 1.871094 40.230469 1.4375 41.953125 1.089844 43.695312 C 0.742188 45.4375 0.480469 47.191406 0.304688 48.960938 C 0.128906 50.726562 0.0429688 52.5 0.0429688 54.277344 C 0.0429688 87.777344 29.773438 115.476562 45.300781 134.371094 C 45.578125 134.710938 45.875 135.03125 46.1875 135.339844 C 46.503906 135.644531 46.832031 135.933594 47.175781 136.203125 C 47.523438 136.472656 47.882812 136.722656 48.257812 136.953125 C 48.628906 137.183594 49.015625 137.390625 49.410156 137.578125 C 49.808594 137.765625 50.214844 137.929688 50.628906 138.074219 C 51.042969 138.21875 51.464844 138.335938 51.894531 138.433594 C 52.320312 138.527344 52.753906 138.601562 53.191406 138.648438 C 53.628906 138.699219 54.066406 138.722656 54.503906 138.722656 C 54.941406 138.722656 55.382812 138.699219 55.816406 138.648438 C 56.253906 138.601562 56.6875 138.527344 57.113281 138.433594 C 57.542969 138.335938 57.964844 138.21875 58.378906 138.074219 C 58.792969 137.929688 59.199219 137.765625 59.597656 137.578125 C 59.992188 137.390625 60.378906 137.183594 60.753906 136.953125 C 61.125 136.722656 61.484375 136.472656 61.832031 136.203125 C 62.175781 135.933594 62.507812 135.644531 62.820312 135.339844 C 63.132812 135.03125 63.429688 134.710938 63.707031 134.371094 C 79.234375 115.476562 108.964844 86.183594 108.964844 54.277344 C 108.964844 52.5 108.878906 50.726562 108.703125 48.960938 C 108.53125 47.191406 108.269531 45.4375 107.921875 43.695312 C 107.570312 41.953125 107.140625 40.230469 106.621094 38.53125 C 106.101562 36.832031 105.503906 35.160156 104.820312 33.519531 C 104.136719 31.878906 103.375 30.273438 102.535156 28.707031 C 101.695312 27.140625 100.777344 25.617188 99.789062 24.140625 C 98.796875 22.664062 97.734375 21.238281 96.605469 19.867188 C 95.472656 18.492188 94.277344 17.179688 93.015625 15.921875 C 91.753906 14.667969 90.433594 13.476562 89.054688 12.347656 C 87.675781 11.222656 86.246094 10.164062 84.761719 9.175781 C 83.277344 8.191406 81.75 7.277344 80.175781 6.441406 C 78.605469 5.601562 76.992188 4.84375 75.347656 4.164062 C 73.699219 3.484375 72.019531 2.886719 70.3125 2.371094 C 68.605469 1.855469 66.878906 1.425781 65.128906 1.078125 C 63.378906 0.730469 61.617188 0.472656 59.84375 0.296875 C 58.066406 0.121094 56.289062 0.0351562 54.503906 0.0351562 Z M 74.832031 81.125 C 41.78125 101.566406 7.023438 66.949219 27.546875 34.035156 C 29.242188 31.320312 31.453125 29.117188 34.179688 27.429688 C 67.230469 6.984375 101.988281 41.601562 81.460938 74.519531 C 79.765625 77.234375 77.558594 79.4375 74.832031 81.125 Z M 74.832031 81.125 "/></g><g clip-rule="nonzero" clip-path="url(#bac296dfb2)"><g clip-rule="nonzero" clip-path="url(#845568acb9)"><path style=" stroke:none;fill-rule:nonzero;fill:#ffffff;fill-opacity:1;" d="M 9.210938 8.230469 L 96.519531 8.230469 L 96.519531 92.261719 L 9.210938 92.261719 Z M 9.210938 8.230469 "/></g></g><g clip-rule="nonzero" clip-path="url(#af096f5bcb)"><path style=" stroke:none;fill-rule:nonzero;fill:#000000;fill-opacity:1;" d="M 145.316406 130.976562 L -21.664062 130.976562 L -14.082031 126.46875 L -7.769531 124.195312 L -3.695312 119.121094 L 14.539062 102.054688 L 15.304688 97.945312 L 12.769531 95.976562 L 12.167969 91.066406 L 15.304688 88.898438 L 15.304688 87.660156 L 13.636719 87.660156 L 18.277344 78.945312 L 22.886719 87.160156 L 21.417969 87.160156 L 21.515625 94.105469 L 22.21875 94.238281 L 22.253906 95.273438 L 23.855469 95.242188 L 23.855469 93.4375 L 25.023438 93.4375 L 25.023438 94.808594 L 25.457031 94.773438 L 25.457031 93.707031 L 26.628906 93.570312 L 26.628906 92.101562 L 28.128906 91.703125 L 28.128906 82.316406 L 26.628906 82.316406 L 26.628906 79.644531 L 28.128906 79.644531 L 28.128906 72.433594 L 27.429688 72.433594 L 27.429688 71.5625 L 28.195312 71.5625 L 28.195312 67.957031 L 27.59375 67.957031 L 29.5 63.449219 L 31.703125 67.625 L 30.902344 67.625 L 30.902344 68.625 L 31.96875 68.625 L 31.96875 68.992188 L 30.867188 68.992188 L 30.867188 69.695312 L 36.945312 69.695312 L 36.945312 67.992188 L 36.113281 67.992188 L 36.113281 66.988281 L 36.945312 66.988281 L 36.945312 65.953125 L 37.414062 65.953125 L 37.414062 56.804688 L 36.644531 56.804688 L 36.644531 54.363281 L 38.214844 54.363281 L 38.214844 51.226562 L 37.449219 51.226562 L 39.484375 41.839844 L 41.824219 51.09375 L 41.019531 51.09375 L 41.019531 53.296875 L 43.359375 53.296875 L 43.359375 43.613281 L 42.355469 43.613281 L 42.355469 42.410156 L 43.359375 42.410156 L 43.359375 40.574219 L 42.289062 40.574219 L 46.296875 25.578125 L 46.296875 18.832031 C 45.394531 19.464844 42.054688 21.503906 40.554688 16.792969 C 40.554688 16.792969 42.289062 18.128906 46.296875 15.660156 L 46.296875 15.523438 L 46.730469 15.523438 L 46.730469 25.578125 L 50.570312 40.4375 L 49.535156 40.4375 L 49.535156 42.242188 L 50.570312 42.242188 L 50.570312 43.578125 L 49.605469 43.578125 L 49.605469 57.605469 L 51.207031 57.605469 L 51.207031 51.859375 L 52.476562 51.859375 L 52.476562 50.289062 L 51.640625 50.289062 L 51.640625 49.722656 L 52.476562 49.722656 L 52.476562 47.851562 L 51.707031 47.851562 L 53.144531 39.804688 L 55.316406 47.820312 L 54.714844 47.820312 L 54.714844 49.691406 L 55.316406 49.691406 L 55.316406 50.257812 L 54.679688 50.257812 L 54.679688 51.660156 L 56.050781 51.660156 L 56.050781 54.265625 L 55.214844 54.265625 L 55.214844 66.085938 L 56.050781 66.054688 L 56.050781 68.457031 L 56.785156 68.457031 L 56.785156 68.859375 L 62.058594 68.859375 L 62.058594 66.855469 L 60.824219 66.855469 L 60.824219 65.953125 L 62.058594 65.953125 L 62.058594 58.273438 L 61.09375 58.273438 L 61.09375 54.632812 L 63.261719 52.460938 L 63.261719 51.226562 L 62.726562 51.226562 L 62.726562 49.023438 L 62.160156 49.023438 L 65.535156 40.40625 L 65.535156 35.898438 C 64.53125 35.898438 60.558594 35.761719 59.957031 33.757812 C 59.957031 33.757812 64.199219 33.828125 65.535156 32.558594 L 65.535156 32.289062 L 65.96875 32.289062 L 65.96875 39.804688 L 69.542969 48.855469 L 68.839844 48.820312 L 68.839844 51.027344 L 68.4375 51.027344 L 68.4375 52.496094 L 70.644531 54.699219 L 70.644531 58.273438 L 69.84375 58.273438 L 69.84375 66.121094 L 70.542969 66.121094 L 70.542969 66.855469 L 69.875 66.855469 L 69.875 73.167969 L 75.351562 73.167969 L 77.488281 83.519531 L 77.488281 93.605469 L 78.957031 93.605469 L 78.957031 90.96875 L 79.996094 90.96875 L 79.996094 88.460938 L 78.523438 88.460938 L 78.523438 87.195312 L 79.996094 87.195312 L 79.996094 81.25 L 78.660156 81.25 L 78.660156 78.644531 L 79.492188 78.644531 L 79.492188 74.035156 L 81.261719 66.6875 L 82.964844 74.371094 L 82.964844 78.144531 L 84.667969 78.144531 L 84.667969 69.628906 L 87.375 58.707031 L 90.347656 70.363281 L 90.347656 78.042969 L 91.414062 78.042969 L 91.414062 83.050781 L 89.710938 83.050781 L 89.710938 86.226562 L 91.082031 86.226562 L 91.082031 89.464844 L 93.085938 89.464844 L 93.085938 87.660156 L 94.65625 87.660156 L 94.65625 89.664062 L 95.191406 89.664062 L 96.523438 92.902344 L 105.34375 92.902344 L 105.34375 89.230469 L 104.472656 89.230469 L 104.472656 87.960938 L 105.742188 87.960938 L 105.742188 85.890625 L 104.773438 85.890625 L 109.316406 76.238281 L 113.757812 85.65625 L 112.386719 85.65625 L 112.386719 87.894531 L 113.457031 87.894531 L 113.457031 89.164062 L 112.757812 89.164062 L 112.757812 98.683594 L 115.09375 100.386719 L 115.09375 104.191406 L 113.191406 105.660156 L 113.191406 111.339844 L 121.90625 116.78125 L 124.246094 120.890625 L 138.90625 125.433594 Z M 145.316406 130.976562 "/></g></g></svg>