<svg xmlns="http://www.w3.org/2000/svg" xmlns:xlink="http://www.w3.org/1999/xlink" width="321" zoomAndPan="magnify" viewBox="0 0 240.75 54.75" height="73" preserveAspectRatio="xMidYMid meet" version="1.2"><defs><clipPath id="3912fc5f08"><path d="M 0.421875 1.957031 L 38.367188 1.957031 L 38.367188 50.253906 L 0.421875 50.253906 Z M 0.421875 1.957031 "/></clipPath><clipPath id="869b8ce169"><path d="M 3.703125 4.902344 L 35 4.902344 L 35 34.984375 L 3.703125 34.984375 Z M 3.703125 4.902344 "/></clipPath><clipPath id="c15ab12a77"><path d="M 19.351562 4.902344 C 10.710938 4.902344 3.703125 11.636719 3.703125 19.941406 C 3.703125 28.25 10.710938 34.984375 19.351562 34.984375 C 27.992188 34.984375 34.996094 28.25 34.996094 19.941406 C 34.996094 11.636719 27.992188 4.902344 19.351562 4.902344 Z M 19.351562 4.902344 "/></clipPath><clipPath id="c09072b834"><path d="M 5.734375 7.480469 L 32.949219 7.480469 L 32.949219 35.078125 L 5.734375 35.078125 Z M 5.734375 7.480469 "/></clipPath></defs><g id="fe810ccaef"><g clip-rule="nonzero" clip-path="url(#3912fc5f08)"><path style=" stroke:none;fill-rule:nonzero;fill:#ffffff;fill-opacity:1;" d="M 19.300781 1.96875 C 18.683594 1.96875 18.066406 2 17.453125 2.058594 C 16.835938 2.121094 16.226562 2.210938 15.617188 2.332031 C 15.011719 2.453125 14.414062 2.601562 13.820312 2.78125 C 13.230469 2.960938 12.648438 3.167969 12.078125 3.40625 C 11.507812 3.640625 10.949219 3.90625 10.402344 4.195312 C 9.855469 4.488281 9.328125 4.804688 8.8125 5.148438 C 8.300781 5.492188 7.804688 5.859375 7.324219 6.253906 C 6.847656 6.644531 6.390625 7.058594 5.953125 7.496094 C 5.515625 7.933594 5.101562 8.390625 4.707031 8.871094 C 4.316406 9.347656 3.949219 9.84375 3.605469 10.359375 C 3.261719 10.871094 2.945312 11.402344 2.652344 11.949219 C 2.359375 12.492188 2.097656 13.050781 1.859375 13.621094 C 1.625 14.195312 1.414062 14.773438 1.234375 15.367188 C 1.054688 15.957031 0.90625 16.558594 0.785156 17.164062 C 0.664062 17.769531 0.574219 18.382812 0.511719 18.996094 C 0.453125 19.613281 0.421875 20.230469 0.421875 20.847656 C 0.421875 32.507812 10.730469 42.148438 16.113281 48.726562 C 16.304688 48.964844 16.523438 49.175781 16.761719 49.363281 C 17.003906 49.550781 17.261719 49.710938 17.535156 49.84375 C 17.8125 49.972656 18.097656 50.074219 18.398438 50.140625 C 18.695312 50.207031 18.996094 50.242188 19.300781 50.242188 C 19.609375 50.242188 19.910156 50.207031 20.207031 50.140625 C 20.503906 50.074219 20.792969 49.972656 21.066406 49.84375 C 21.34375 49.710938 21.601562 49.550781 21.84375 49.363281 C 22.082031 49.175781 22.300781 48.964844 22.492188 48.726562 C 27.875 42.148438 38.183594 31.953125 38.183594 20.847656 C 38.183594 20.230469 38.152344 19.613281 38.089844 18.996094 C 38.03125 18.382812 37.941406 17.769531 37.820312 17.164062 C 37.699219 16.558594 37.546875 15.957031 37.367188 15.367188 C 37.1875 14.773438 36.980469 14.195312 36.746094 13.621094 C 36.507812 13.050781 36.242188 12.492188 35.953125 11.949219 C 35.660156 11.402344 35.34375 10.871094 35 10.359375 C 34.65625 9.84375 34.289062 9.347656 33.894531 8.871094 C 33.503906 8.390625 33.089844 7.933594 32.652344 7.496094 C 32.214844 7.058594 31.757812 6.644531 31.277344 6.253906 C 30.800781 5.859375 30.304688 5.492188 29.792969 5.148438 C 29.277344 4.804688 28.746094 4.488281 28.203125 4.195312 C 27.65625 3.90625 27.097656 3.640625 26.527344 3.40625 C 25.957031 3.167969 25.375 2.960938 24.78125 2.78125 C 24.191406 2.601562 23.59375 2.453125 22.984375 2.332031 C 22.378906 2.210938 21.769531 2.121094 21.152344 2.058594 C 20.539062 2 19.921875 1.96875 19.300781 1.96875 Z M 26.347656 30.191406 C 14.890625 37.308594 2.84375 25.257812 9.957031 13.800781 C 10.546875 12.855469 11.3125 12.089844 12.257812 11.503906 C 23.714844 4.386719 35.761719 16.4375 28.648438 27.894531 C 28.058594 28.839844 27.292969 29.605469 26.347656 30.191406 Z M 26.347656 30.191406 "/></g><g clip-rule="nonzero" clip-path="url(#869b8ce169)"><g clip-rule="nonzero" clip-path="url(#c15ab12a77)"><path style=" stroke:none;fill-rule:nonzero;fill:#000000;fill-opacity:1;" d="M 3.703125 4.902344 L 34.960938 4.902344 L 34.960938 34.984375 L 3.703125 34.984375 Z M 3.703125 4.902344 "/></g></g><g clip-rule="nonzero" clip-path="url(#c09072b834)"><path style=" stroke:none;fill-rule:nonzero;fill:#ffffff;fill-opacity:1;" d="M 52.429688 48.84375 L -7.347656 48.84375 L -4.632812 47.230469 L -2.375 46.417969 L -0.914062 44.601562 L 5.613281 38.492188 L 5.886719 37.019531 L 4.980469 36.316406 L 4.761719 34.558594 L 5.886719 33.78125 L 5.886719 33.339844 L 5.289062 33.339844 L 6.953125 30.21875 L 8.601562 33.160156 L 8.074219 33.160156 L 8.109375 35.644531 L 8.363281 35.695312 L 8.375 36.066406 L 8.949219 36.054688 L 8.949219 35.40625 L 9.367188 35.40625 L 9.367188 35.898438 L 9.523438 35.886719 L 9.523438 35.503906 L 9.941406 35.453125 L 9.941406 34.929688 L 10.476562 34.785156 L 10.476562 31.425781 L 9.941406 31.425781 L 9.941406 30.46875 L 10.476562 30.46875 L 10.476562 27.886719 L 10.226562 27.886719 L 10.226562 27.578125 L 10.503906 27.578125 L 10.503906 26.285156 L 10.285156 26.285156 L 10.96875 24.671875 L 11.757812 26.164062 L 11.46875 26.164062 L 11.46875 26.523438 L 11.851562 26.523438 L 11.851562 26.65625 L 11.457031 26.65625 L 11.457031 26.90625 L 13.632812 26.90625 L 13.632812 26.296875 L 13.335938 26.296875 L 13.335938 25.9375 L 13.632812 25.9375 L 13.632812 25.566406 L 13.800781 25.566406 L 13.800781 22.292969 L 13.527344 22.292969 L 13.527344 21.417969 L 14.089844 21.417969 L 14.089844 20.296875 L 13.8125 20.296875 L 14.542969 16.9375 L 15.378906 20.246094 L 15.09375 20.246094 L 15.09375 21.035156 L 15.929688 21.035156 L 15.929688 17.570312 L 15.570312 17.570312 L 15.570312 17.140625 L 15.929688 17.140625 L 15.929688 16.480469 L 15.546875 16.480469 L 16.980469 11.113281 L 16.980469 8.699219 C 16.660156 8.925781 15.464844 9.65625 14.925781 7.96875 C 14.925781 7.96875 15.546875 8.445312 16.980469 7.5625 L 16.980469 7.515625 L 17.136719 7.515625 L 17.136719 11.113281 L 18.511719 16.433594 L 18.140625 16.433594 L 18.140625 17.078125 L 18.511719 17.078125 L 18.511719 17.558594 L 18.164062 17.558594 L 18.164062 22.578125 L 18.738281 22.578125 L 18.738281 20.523438 L 19.195312 20.523438 L 19.195312 19.960938 L 18.894531 19.960938 L 18.894531 19.757812 L 19.195312 19.757812 L 19.195312 19.085938 L 18.917969 19.085938 L 19.433594 16.207031 L 20.210938 19.074219 L 19.996094 19.074219 L 19.996094 19.746094 L 20.210938 19.746094 L 20.210938 19.949219 L 19.984375 19.949219 L 19.984375 20.449219 L 20.472656 20.449219 L 20.472656 21.382812 L 20.175781 21.382812 L 20.175781 25.617188 L 20.472656 25.601562 L 20.472656 26.464844 L 20.734375 26.464844 L 20.734375 26.609375 L 22.625 26.609375 L 22.625 25.890625 L 22.183594 25.890625 L 22.183594 25.566406 L 22.625 25.566406 L 22.625 22.816406 L 22.277344 22.816406 L 22.277344 21.515625 L 23.054688 20.738281 L 23.054688 20.296875 L 22.863281 20.296875 L 22.863281 19.507812 L 22.660156 19.507812 L 23.867188 16.421875 L 23.867188 14.808594 C 23.511719 14.808594 22.085938 14.757812 21.871094 14.042969 C 21.871094 14.042969 23.390625 14.066406 23.867188 13.613281 L 23.867188 13.515625 L 24.023438 13.515625 L 24.023438 16.207031 L 25.304688 19.445312 L 25.050781 19.433594 L 25.050781 20.222656 L 24.910156 20.222656 L 24.910156 20.75 L 25.699219 21.539062 L 25.699219 22.816406 L 25.410156 22.816406 L 25.410156 25.628906 L 25.660156 25.628906 L 25.660156 25.890625 L 25.421875 25.890625 L 25.421875 28.148438 L 27.382812 28.148438 L 28.148438 31.855469 L 28.148438 35.46875 L 28.675781 35.46875 L 28.675781 34.523438 L 29.046875 34.523438 L 29.046875 33.625 L 28.519531 33.625 L 28.519531 33.171875 L 29.046875 33.171875 L 29.046875 31.042969 L 28.566406 31.042969 L 28.566406 30.109375 L 28.867188 30.109375 L 28.867188 28.460938 L 29.5 25.832031 L 30.109375 28.582031 L 30.109375 29.929688 L 30.71875 29.929688 L 30.71875 26.882812 L 31.6875 22.972656 L 32.75 27.144531 L 32.75 29.894531 L 33.132812 29.894531 L 33.132812 31.6875 L 32.523438 31.6875 L 32.523438 32.824219 L 33.015625 32.824219 L 33.015625 33.984375 L 33.730469 33.984375 L 33.730469 33.339844 L 34.292969 33.339844 L 34.292969 34.054688 L 34.484375 34.054688 L 34.964844 35.214844 L 38.121094 35.214844 L 38.121094 33.902344 L 37.808594 33.902344 L 37.808594 33.445312 L 38.261719 33.445312 L 38.261719 32.707031 L 37.917969 32.707031 L 39.542969 29.25 L 41.132812 32.621094 L 40.640625 32.621094 L 40.640625 33.421875 L 41.023438 33.421875 L 41.023438 33.875 L 40.773438 33.875 L 40.773438 37.285156 L 41.609375 37.894531 L 41.609375 39.257812 L 40.929688 39.78125 L 40.929688 41.816406 L 44.050781 43.765625 L 44.886719 45.234375 L 50.136719 46.859375 Z M 52.429688 48.84375 "/></g><g style="fill:#ffffff;fill-opacity:1;"><g transform="translate(40.435062, 46.156452)"><path style="stroke:none" d="M 2.078125 0 L 1.078125 0 L 1.078125 -9.75 L 2.078125 -9.75 Z M 2.078125 0 "/></g></g><g style="fill:#ffffff;fill-opacity:1;"><g transform="translate(55.050408, 46.156452)"><path style="stroke:none" d="M 0.28125 -8.84375 L 0.28125 -9.765625 L 6.015625 -9.765625 L 6.015625 -8.84375 L 3.65625 -8.84375 L 3.65625 -0.03125 L 2.65625 -0.03125 L 2.65625 -8.84375 Z M 0.28125 -8.84375 "/></g></g><g style="fill:#ffffff;fill-opacity:1;"><g transform="translate(72.817291, 46.156452)"><path style="stroke:none" d="M 2.078125 0 L 1.078125 0 L 1.078125 -9.75 L 2.078125 -9.75 Z M 2.078125 0 "/></g></g><g style="fill:#ffffff;fill-opacity:1;"><g transform="translate(87.432637, 46.156452)"><path style="stroke:none" d="M 2.078125 -7.171875 L 2.078125 0 L 1.078125 0 L 1.078125 -10.359375 L 6.546875 -2.578125 L 6.546875 -9.75 L 7.546875 -9.75 L 7.546875 0.609375 Z M 2.078125 -7.171875 "/></g></g><g style="fill:#ffffff;fill-opacity:1;"><g transform="translate(107.520199, 46.156452)"><path style="stroke:none" d="M 6.859375 0 L 1.078125 0 L 1.078125 -9.75 L 6.859375 -9.75 L 6.859375 -8.8125 L 2.078125 -8.8125 L 2.078125 -5.34375 L 6.71875 -5.34375 L 6.71875 -4.40625 L 2.078125 -4.40625 L 2.078125 -0.9375 L 6.859375 -0.9375 Z M 6.859375 0 "/></g></g><g style="fill:#ffffff;fill-opacity:1;"><g transform="translate(126.920159, 46.156452)"><path style="stroke:none" d="M 2.078125 -4.8125 L 4.34375 -4.8125 C 4.90625 -4.8125 5.367188 -5.003906 5.734375 -5.390625 C 6.109375 -5.773438 6.296875 -6.253906 6.296875 -6.828125 C 6.296875 -7.398438 6.117188 -7.867188 5.765625 -8.234375 C 5.410156 -8.597656 4.9375 -8.78125 4.34375 -8.78125 L 2.078125 -8.78125 Z M 7.296875 -6.8125 C 7.296875 -5.957031 6.992188 -5.25 6.390625 -4.6875 C 5.859375 -4.1875 5.210938 -3.914062 4.453125 -3.875 L 7.453125 0 L 6.109375 0 L 3.25 -3.859375 L 2.078125 -3.859375 L 2.078125 0 L 1.078125 0 L 1.078125 -9.75 L 4.203125 -9.75 C 5.066406 -9.75 5.796875 -9.472656 6.390625 -8.921875 C 6.992188 -8.347656 7.296875 -7.644531 7.296875 -6.8125 Z M 7.296875 -6.8125 "/></g></g><g style="fill:#ffffff;fill-opacity:1;"><g transform="translate(146.176863, 46.156452)"><path style="stroke:none" d="M 2.65625 -3.578125 L 6.1875 -3.578125 L 4.421875 -8.0625 Z M 8.703125 0 L 7.609375 0 L 6.5625 -2.65625 L 2.28125 -2.65625 L 1.234375 0 L 0.140625 0 L 4.421875 -10.421875 Z M 8.703125 0 "/></g></g><g style="fill:#ffffff;fill-opacity:1;"><g transform="translate(166.479302, 46.156452)"><path style="stroke:none" d="M 2.078125 -4.8125 L 4.34375 -4.8125 C 4.90625 -4.8125 5.367188 -5.003906 5.734375 -5.390625 C 6.109375 -5.773438 6.296875 -6.253906 6.296875 -6.828125 C 6.296875 -7.398438 6.117188 -7.867188 5.765625 -8.234375 C 5.410156 -8.597656 4.9375 -8.78125 4.34375 -8.78125 L 2.078125 -8.78125 Z M 7.296875 -6.8125 C 7.296875 -5.957031 6.992188 -5.25 6.390625 -4.6875 C 5.859375 -4.1875 5.210938 -3.914062 4.453125 -3.875 L 7.453125 0 L 6.109375 0 L 3.25 -3.859375 L 2.078125 -3.859375 L 2.078125 0 L 1.078125 0 L 1.078125 -9.75 L 4.203125 -9.75 C 5.066406 -9.75 5.796875 -9.472656 6.390625 -8.921875 C 6.992188 -8.347656 7.296875 -7.644531 7.296875 -6.8125 Z M 7.296875 -6.8125 "/></g></g><g style="fill:#ffffff;fill-opacity:1;"><g transform="translate(185.736007, 46.156452)"><path style="stroke:none" d="M 2.078125 0 L 1.078125 0 L 1.078125 -9.75 L 2.078125 -9.75 Z M 2.078125 0 "/></g></g><g style="fill:#ffffff;fill-opacity:1;"><g transform="translate(200.351353, 46.156452)"><path style="stroke:none" d="M 6.859375 0 L 1.078125 0 L 1.078125 -9.75 L 6.859375 -9.75 L 6.859375 -8.8125 L 2.078125 -8.8125 L 2.078125 -5.34375 L 6.71875 -5.34375 L 6.71875 -4.40625 L 2.078125 -4.40625 L 2.078125 -0.9375 L 6.859375 -0.9375 Z M 6.859375 0 "/></g></g><g style="fill:#ffffff;fill-opacity:1;"><g transform="translate(219.751312, 46.156452)"><path style="stroke:none" d="M 3.78125 -4.59375 C 1.789062 -5.050781 0.796875 -5.90625 0.796875 -7.15625 C 0.796875 -8.070312 1.117188 -8.757812 1.765625 -9.21875 C 2.398438 -9.664062 3.148438 -9.890625 4.015625 -9.890625 C 5.910156 -9.890625 7.035156 -9.179688 7.390625 -7.765625 L 6.296875 -7.765625 C 6.109375 -8.609375 5.347656 -9.03125 4.015625 -9.03125 C 3.078125 -9.03125 2.421875 -8.753906 2.046875 -8.203125 C 1.898438 -7.984375 1.828125 -7.71875 1.828125 -7.40625 C 1.828125 -6.800781 2.15625 -6.335938 2.8125 -6.015625 C 3.113281 -5.859375 3.757812 -5.648438 4.75 -5.390625 C 5.75 -5.128906 6.472656 -4.84375 6.921875 -4.53125 C 7.546875 -4.09375 7.859375 -3.472656 7.859375 -2.671875 C 7.859375 -1.691406 7.46875 -0.945312 6.6875 -0.4375 C 6.039062 -0.0195312 5.238281 0.1875 4.28125 0.1875 C 2.125 0.1875 0.875 -0.632812 0.53125 -2.28125 L 1.71875 -2.28125 C 1.894531 -1.25 2.75 -0.734375 4.28125 -0.734375 C 5.375 -0.734375 6.132812 -1.035156 6.5625 -1.640625 C 6.726562 -1.867188 6.8125 -2.191406 6.8125 -2.609375 C 6.8125 -3.003906 6.65625 -3.332031 6.34375 -3.59375 C 5.894531 -3.957031 5.039062 -4.289062 3.78125 -4.59375 Z M 3.78125 -4.59375 "/></g></g><g style="fill:#ffffff;fill-opacity:1;"><g transform="translate(40.139269, 33.407263)"><path style="stroke:none" d="M 1.625 -22.3125 L 9.765625 -22.3125 C 12.035156 -22.3125 13.875 -21.722656 15.28125 -20.546875 C 16.6875 -19.378906 17.390625 -17.675781 17.390625 -15.4375 C 17.390625 -13.207031 16.675781 -11.457031 15.25 -10.1875 C 13.832031 -8.914062 12.003906 -8.28125 9.765625 -8.28125 L 6.703125 -8.28125 L 6.703125 0 L 1.625 0 Z M 6.703125 -12.328125 L 8.140625 -12.328125 C 9.273438 -12.328125 10.207031 -12.554688 10.9375 -13.015625 C 11.664062 -13.484375 12.03125 -14.238281 12.03125 -15.28125 C 12.03125 -16.34375 11.664062 -17.101562 10.9375 -17.5625 C 10.207031 -18.019531 9.273438 -18.25 8.140625 -18.25 L 6.703125 -18.25 Z M 6.703125 -12.328125 "/></g></g><g style="fill:#ffffff;fill-opacity:1;"><g transform="translate(58.148245, 33.407263)"><path style="stroke:none" d="M 12.953125 -22.3125 L 21.96875 0 L 16.5 0 L 14.84375 -4.46875 L 6.359375 -4.46875 L 4.703125 0 L -0.75 0 L 8.25 -22.3125 Z M 13.125 -8.921875 L 10.625 -15.421875 L 10.578125 -15.421875 L 8.09375 -8.921875 Z M 13.125 -8.921875 "/></g></g><g style="fill:#ffffff;fill-opacity:1;"><g transform="translate(79.348004, 33.407263)"><path style="stroke:none" d="M 1.625 -22.3125 L 9.609375 -22.3125 C 11.742188 -22.3125 13.488281 -21.738281 14.84375 -20.59375 C 16.195312 -19.445312 16.875 -17.8125 16.875 -15.6875 C 16.875 -14.039062 16.460938 -12.664062 15.640625 -11.5625 C 14.828125 -10.457031 13.71875 -9.675781 12.3125 -9.21875 L 19.984375 0 L 13.53125 0 L 6.703125 -8.8125 L 6.703125 0 L 1.625 0 Z M 6.703125 -12.421875 L 7.296875 -12.421875 C 7.765625 -12.421875 8.160156 -12.425781 8.484375 -12.4375 C 8.816406 -12.457031 9.1875 -12.519531 9.59375 -12.625 C 10.007812 -12.738281 10.34375 -12.894531 10.59375 -13.09375 C 10.851562 -13.289062 11.070312 -13.578125 11.25 -13.953125 C 11.425781 -14.335938 11.515625 -14.796875 11.515625 -15.328125 C 11.515625 -15.867188 11.425781 -16.328125 11.25 -16.703125 C 11.070312 -17.085938 10.851562 -17.378906 10.59375 -17.578125 C 10.34375 -17.773438 10.007812 -17.925781 9.59375 -18.03125 C 9.1875 -18.144531 8.816406 -18.207031 8.484375 -18.21875 C 8.160156 -18.238281 7.765625 -18.25 7.296875 -18.25 L 6.703125 -18.25 Z M 6.703125 -12.421875 "/></g></g><g style="fill:#ffffff;fill-opacity:1;"><g transform="translate(98.709014, 33.407263)"><path style="stroke:none" d="M 21.9375 0 L 14.9375 0 L 6.703125 -9.46875 L 6.703125 0 L 1.625 0 L 1.625 -22.3125 L 6.703125 -22.3125 L 6.703125 -13.203125 L 14.359375 -22.3125 L 20.53125 -22.3125 L 11.546875 -11.734375 Z M 21.9375 0 "/></g></g><g style="fill:#ffffff;fill-opacity:1;"><g transform="translate(119.989896, 33.407263)"><path style="stroke:none" d=""/></g></g><g style="fill:#ffffff;fill-opacity:1;"><g transform="translate(127.371959, 33.407263)"><path style="stroke:none" d="M 1.625 -22.3125 L 9.765625 -22.3125 C 12.035156 -22.3125 13.875 -21.722656 15.28125 -20.546875 C 16.6875 -19.378906 17.390625 -17.675781 17.390625 -15.4375 C 17.390625 -13.207031 16.675781 -11.457031 15.25 -10.1875 C 13.832031 -8.914062 12.003906 -8.28125 9.765625 -8.28125 L 6.703125 -8.28125 L 6.703125 0 L 1.625 0 Z M 6.703125 -12.328125 L 8.140625 -12.328125 C 9.273438 -12.328125 10.207031 -12.554688 10.9375 -13.015625 C 11.664062 -13.484375 12.03125 -14.238281 12.03125 -15.28125 C 12.03125 -16.34375 11.664062 -17.101562 10.9375 -17.5625 C 10.207031 -18.019531 9.273438 -18.25 8.140625 -18.25 L 6.703125 -18.25 Z M 6.703125 -12.328125 "/></g></g><g style="fill:#ffffff;fill-opacity:1;"><g transform="translate(145.380935, 33.407263)"><path style="stroke:none" d="M 1.625 -22.3125 L 9.609375 -22.3125 C 11.742188 -22.3125 13.488281 -21.738281 14.84375 -20.59375 C 16.195312 -19.445312 16.875 -17.8125 16.875 -15.6875 C 16.875 -14.039062 16.460938 -12.664062 15.640625 -11.5625 C 14.828125 -10.457031 13.71875 -9.675781 12.3125 -9.21875 L 19.984375 0 L 13.53125 0 L 6.703125 -8.8125 L 6.703125 0 L 1.625 0 Z M 6.703125 -12.421875 L 7.296875 -12.421875 C 7.765625 -12.421875 8.160156 -12.425781 8.484375 -12.4375 C 8.816406 -12.457031 9.1875 -12.519531 9.59375 -12.625 C 10.007812 -12.738281 10.34375 -12.894531 10.59375 -13.09375 C 10.851562 -13.289062 11.070312 -13.578125 11.25 -13.953125 C 11.425781 -14.335938 11.515625 -14.796875 11.515625 -15.328125 C 11.515625 -15.867188 11.425781 -16.328125 11.25 -16.703125 C 11.070312 -17.085938 10.851562 -17.378906 10.59375 -17.578125 C 10.34375 -17.773438 10.007812 -17.925781 9.59375 -18.03125 C 9.1875 -18.144531 8.816406 -18.207031 8.484375 -18.21875 C 8.160156 -18.238281 7.765625 -18.25 7.296875 -18.25 L 6.703125 -18.25 Z M 6.703125 -12.421875 "/></g></g><g style="fill:#ffffff;fill-opacity:1;"><g transform="translate(164.741945, 33.407263)"><path style="stroke:none" d="M 0.625 -11.171875 C 0.625 -14.398438 1.722656 -17.128906 3.921875 -19.359375 C 6.117188 -21.597656 8.769531 -22.71875 11.875 -22.71875 C 14.988281 -22.71875 17.632812 -21.601562 19.8125 -19.375 C 22 -17.144531 23.09375 -14.410156 23.09375 -11.171875 C 23.09375 -7.910156 22.019531 -5.164062 19.875 -2.9375 C 17.726562 -0.707031 15.0625 0.40625 11.875 0.40625 C 8.613281 0.40625 5.921875 -0.695312 3.796875 -2.90625 C 1.679688 -5.113281 0.625 -7.867188 0.625 -11.171875 Z M 6.109375 -11.171875 C 6.109375 -9.992188 6.285156 -8.921875 6.640625 -7.953125 C 7.003906 -6.992188 7.640625 -6.179688 8.546875 -5.515625 C 9.453125 -4.847656 10.5625 -4.515625 11.875 -4.515625 C 13.769531 -4.515625 15.195312 -5.160156 16.15625 -6.453125 C 17.125 -7.753906 17.609375 -9.328125 17.609375 -11.171875 C 17.609375 -12.992188 17.113281 -14.554688 16.125 -15.859375 C 15.144531 -17.171875 13.726562 -17.828125 11.875 -17.828125 C 10.03125 -17.828125 8.609375 -17.171875 7.609375 -15.859375 C 6.609375 -14.554688 6.109375 -12.992188 6.109375 -11.171875 Z M 6.109375 -11.171875 "/></g></g><g style="fill:#ffffff;fill-opacity:1;"><g transform="translate(188.46588, 33.407263)"><path style="stroke:none" d=""/></g></g></g></svg>